<?xml version="1.0" encoding="UTF-8"?>
<svg width="96px" height="44px" viewBox="0 0 96 44" version="1.1" xmlns="http://www.w3.org/2000/svg" xmlns:xlink="http://www.w3.org/1999/xlink">
    <!-- Generator: Sketch 53.2 (72643) - https://sketchapp.com -->
    <title>Group 15</title>
    <desc>Created with Sketch.</desc>
    <g id="Designs" stroke="none" stroke-width="1" fill="none" fill-rule="evenodd">
        <g id="Home-Page-Velloro-Rd2" transform="translate(-312.000000, -1272.000000)" fill="#FFFFFF">
            <g id="Use-Cases" transform="translate(0.000000, 1051.000000)">
                <g id="Critical-Migration" transform="translate(250.000000, 133.000000)">
                    <g id="Group-15" transform="translate(62.000000, 88.000000)">
                        <polygon id="Fill-1" points="40.8195 36.0693 40.8195 40.8183 36.0695 40.8183 36.0695 43.3183 43.3195 43.3183 43.3195 36.0693"></polygon>
                        <polygon id="Fill-2" points="10.453 43.3188 20.059 43.3188 20.059 40.8188 10.453 40.8188"></polygon>
                        <polygon id="Fill-3" points="23.26 43.3188 32.867 43.3188 32.867 40.8188 23.26 40.8188"></polygon>
                        <polygon id="Fill-4" points="0 36.0693 0 43.3183 7.25 43.3183 7.25 40.8183 2.5 40.8183 2.5 36.0693"></polygon>
                        <polygon id="Fill-5" points="0 32.8668 2.5 32.8668 2.5 23.2598 0 23.2598"></polygon>
                        <polygon id="Fill-6" points="0 20.0588 2.5 20.0588 2.5 10.4528 0 10.4528"></polygon>
                        <polygon id="Fill-7" points="0 0 0 7.25 2.5 7.25 2.5 2.5 7.25 2.5 7.25 0"></polygon>
                        <polygon id="Fill-8" points="10.452 2.4998 20.059 2.4998 20.059 -0.0002 10.452 -0.0002"></polygon>
                        <polygon id="Fill-9" points="23.26 2.4998 32.867 2.4998 32.867 -0.0002 23.26 -0.0002"></polygon>
                        <polygon id="Fill-10" points="36.0693 0 36.0693 2.5 40.8193 2.5 40.8193 7.25 43.3193 7.25 43.3193 0"></polygon>
                        <polygon id="Fill-11" points="40.819 32.8668 43.319 32.8668 43.319 25.3638 40.819 25.3638"></polygon>
                        <polygon id="Fill-12" points="40.819 17.8588 43.319 17.8588 43.319 10.4528 40.819 10.4528"></polygon>
                        <polygon id="Fill-13" points="51.732 0.0144 51.732 17.9784 54.232 17.9784 54.232 2.5144 92.522 2.5144 92.522 40.8044 54.232 40.8044 54.232 25.4094 51.732 25.4094 51.732 43.3044 95.021 43.3044 95.021 0.0144"></polygon>
                        <path d="M16.299,27.2628 L27.505,27.2628 L27.505,16.0568 L16.299,16.0568 L16.299,27.2628 Z M81.253,21.6598 L73.158,16.9848 L73.158,20.4098 L30.005,20.4098 L30.005,13.5568 L13.799,13.5568 L13.799,29.7628 L30.005,29.7628 L30.005,22.9098 L73.158,22.9098 L73.158,26.3338 L81.253,21.6598 Z" id="Fill-14"></path>
                    </g>
                </g>
            </g>
        </g>
    </g>
</svg>