<?xml version="1.0" encoding="UTF-8"?>
<svg width="65px" height="58px" viewBox="0 0 65 58" version="1.1" xmlns="http://www.w3.org/2000/svg" xmlns:xlink="http://www.w3.org/1999/xlink">
    <!-- Generator: Sketch 53.2 (72643) - https://sketchapp.com -->
    <title>icon</title>
    <desc>Created with Sketch.</desc>
    <g id="Designs" stroke="none" stroke-width="1" fill="none" fill-rule="evenodd">
        <g id="Home-Page-Velloro-" transform="translate(-688.000000, -551.000000)" fill="#0091DA">
            <g id="Callout-2" transform="translate(569.000000, 512.000000)">
                <g id="icon" transform="translate(119.000000, 39.000000)">
                    <path d="M48,52.7479776 L43.0739281,52.9184816 L43.9044744,54.0777847 C40.4728209,55.6415681 36.8250558,56.4443062 33.0445163,56.4443062 C28.8748348,56.4443062 24.7355219,55.4231487 21.0150134,53.5065339 L21.9112407,52.3808339 L17,52 L19.0806033,55.93715 L19.998018,54.7840697 C24.0215064,56.8823895 28.5139427,58 33.0445163,58 C37.1605231,58 41.1268055,57.1176105 44.8494327,55.3976353 L45.7054039,56.5924082 L48,52.7479776 Z" id="Fill-1"></path>
                    <path d="M21,9.45260176 L16.2305174,9 L16.8537591,10.2659191 C14.3113177,11.4678903 12.0581649,12.9399325 10.1767583,14.6727329 C8.0438561,16.6364906 6.47991108,18.8225137 5.50622474,21.1730627 L4,20.8396647 L5.33993533,25 L8.65885206,21.8715223 L7.1849232,21.5449536 C8.07890057,19.4632339 9.4916734,17.5193434 11.4026273,15.7598463 C13.1342361,14.1648752 15.2107922,12.8052074 17.5546483,11.6870513 L18.1813258,12.9585581 L21,9.45260176 Z" id="Fill-3"></path>
                    <path d="M59.4839435,21.1234422 C58.3441195,18.4419939 56.4608713,15.9939065 53.8578441,13.8445965 C52.1971364,12.4739946 50.2874616,11.2826591 48.1928002,10.2787672 L48.829822,9 L44,9.44030349 L46.8353037,13.0036168 L47.4771937,11.7154146 C49.4028636,12.6476 51.1595418,13.7458427 52.6853344,15.0063687 C55.0310493,16.942446 56.7397423,19.1313834 57.7898548,21.5171994 L56.2981387,21.8637811 L59.6953569,25 L61,20.7711994 L59.4839435,21.1234422 Z" id="Fill-5"></path>
                    <path d="M54.5177601,31.0564012 C48.8577673,31.0564012 45.8214604,29.8237033 45.7721404,29.2984828 C45.8214604,28.7720309 48.8577673,27.539333 54.5177601,27.539333 C60.1777528,27.539333 63.2133651,28.7720309 63.2633797,29.2978671 C63.2133651,29.824319 60.1777528,31.0564012 54.5177601,31.0564012 L54.5177601,31.0564012 Z M64.9166422,29.7528939 C64.9673515,29.6069652 65,29.4561105 65,29.2978671 C65,27.0319689 59.5664625,26 54.5177601,26 C49.4690576,26 44.0355201,27.0319689 44.0355201,29.2978671 C44.0355201,31.5637653 49.4690576,32.5957342 54.5177601,32.5957342 C57.7645453,32.5957342 61.1620692,32.1659524 63.180022,31.2589774 L63.180022,35.6085168 C63.1376484,35.6996453 63.1133357,35.7987784 63.1133357,35.903453 C63.1133357,36.2119354 60.9633998,37.3602778 54.5177601,37.3602778 C48.8577673,37.3602778 45.8214604,36.1275799 45.7721404,35.5912763 L45.7367133,33.4522191 C45.7297669,33.0310576 45.3421532,32.6936358 44.8684032,32.6936358 L44.8558995,32.6936358 C44.3758977,32.6997931 43.9931466,33.0495296 44.0000931,33.4743855 L44.0355201,35.6023595 C44.0355201,37.8682577 49.4690576,38.8996109 54.5177601,38.8996109 C56.6857568,38.8996109 60.8557294,38.756145 63.180022,37.7518841 L63.180022,41.6587114 C63.1376484,41.7498399 63.1133357,41.848973 63.1133357,41.9536476 C63.1133357,42.2621299 60.9633998,43.4104724 54.5177601,43.4104724 C48.8577673,43.4104724 45.8214604,42.1777745 45.7721404,41.6408551 L45.7367133,39.5017979 C45.7297669,39.0806364 45.3421532,38.7432146 44.8684032,38.7432146 L44.8558995,38.7432146 C44.3758977,38.7499877 43.9931466,39.0997242 44.0000931,39.5239643 L44.0355201,41.6519383 C44.0355201,43.9178366 49.4690576,44.9498054 54.5177601,44.9498054 C56.6857568,44.9498054 60.8557294,44.8063396 63.180022,43.8020787 L63.180022,47.7082902 C63.1376484,47.7994187 63.1133357,47.8991675 63.1133357,48.0032264 C63.1133357,48.3117088 60.9633998,49.460667 54.5177601,49.460667 C48.8577673,49.460667 45.8214604,48.2279691 45.7721404,47.6910497 L45.7367133,45.5519925 C45.7297669,45.130831 45.3421532,44.7934092 44.8684032,44.7934092 L44.8558995,44.7934092 C44.3758977,44.7995665 43.9931466,45.149303 44.0000931,45.5741589 L44.0355201,47.7021329 C44.0355201,49.9680311 49.4690576,51 54.5177601,51 C57.4054122,51 63.8468841,50.7463179 64.7422856,48.5395301 L64.9166422,48.5395301 L64.9166422,29.7528939 Z" id="Fill-7"></path>
                    <path d="M10.5177601,31.0564012 C4.85707264,31.0564012 1.82146041,29.8237033 1.7721404,29.2984828 C1.82146041,28.7720309 4.85707264,27.539333 10.5177601,27.539333 C16.1770582,27.539333 19.2126704,28.7720309 19.2633797,29.2978671 C19.2126704,29.824319 16.1770582,31.0564012 10.5177601,31.0564012 M10.5177601,26 C5.46905762,26 0.0355201289,27.0319689 0.0355201289,29.2978671 C0.0355201289,31.5637653 5.46905762,32.5957342 10.5177601,32.5957342 C13.7645453,32.5957342 17.1620692,32.1659524 19.180022,31.2589774 L19.180022,35.6085168 C19.1376484,35.6996453 19.1133357,35.7987784 19.1133357,35.903453 C19.1133357,36.2119354 16.9633998,37.3602778 10.5177601,37.3602778 C4.85707264,37.3602778 1.82146041,36.1275799 1.7721404,35.5912763 L1.73671334,33.4522191 C1.72976686,33.0310576 1.34215322,32.6936358 0.868403209,32.6936358 L0.855899543,32.6936358 C0.375897701,32.6997931 -0.00685340558,33.0495296 9.30754863e-05,33.4743855 L0.0355201289,35.6023595 C0.0355201289,37.8682577 5.46905762,38.8996109 10.5177601,38.8996109 C12.6857568,38.8996109 16.8557294,38.756145 19.180022,37.7518841 L19.180022,41.6587114 C19.1376484,41.7498399 19.1133357,41.848973 19.1133357,41.9536476 C19.1133357,42.2621299 16.9633998,43.4104724 10.5177601,43.4104724 C4.85707264,43.4104724 1.82146041,42.1777745 1.7721404,41.6408551 L1.73671334,39.5017979 C1.72976686,39.0806364 1.34215322,38.7432146 0.868403209,38.7432146 L0.855899543,38.7432146 C0.375897701,38.7499877 -0.00685340558,39.0997242 9.30754863e-05,39.5239643 L0.0355201289,41.6519383 C0.0355201289,43.9178366 5.46905762,44.9498054 10.5177601,44.9498054 C12.6857568,44.9498054 16.8557294,44.8063396 19.180022,43.8020787 L19.180022,47.7082902 C19.1376484,47.7994187 19.1133357,47.8991675 19.1133357,48.0032264 C19.1133357,48.3117088 16.9633998,49.460667 10.5177601,49.460667 C4.85707264,49.460667 1.82146041,48.2279691 1.7721404,47.6910497 L1.73671334,45.5519925 C1.72976686,45.130831 1.34215322,44.7934092 0.868403209,44.7934092 L0.855899543,44.7934092 C0.375897701,44.7995665 -0.00685340558,45.149303 9.30754863e-05,45.5741589 L0.0355201289,47.7021329 C0.0355201289,49.9680311 5.46905762,51 10.5177601,51 C13.4054122,51 19.8468841,50.7463179 20.7422856,48.5395301 L20.9166422,48.5395301 L20.9166422,29.7528939 C20.9673515,29.6069652 21,29.4561105 21,29.2978671 C21,27.0319689 15.5664625,26 10.5177601,26" id="Fill-9"></path>
                    <path d="M32.5177601,5.05590995 C26.8570726,5.05590995 23.8214604,3.8231817 23.7721404,3.29794833 C23.8214604,2.77209921 26.8570726,1.53937095 32.5177601,1.53937095 C38.1763635,1.53937095 41.2126704,2.77148346 41.2633797,3.29733258 C41.2126704,3.82379744 38.1770582,5.05590995 32.5177601,5.05590995 M32.5177601,0 C27.4690576,0 22.0355201,1.03137854 22.0355201,3.29733258 C22.0355201,5.56328662 27.4690576,6.5952809 32.5177601,6.5952809 C35.7645453,6.5952809 39.1620692,6.16548853 41.180022,5.25849117 L41.180022,9.60813773 C41.1376484,9.69926849 41.1133357,9.79840398 41.1133357,9.9030812 C41.1133357,10.2115711 38.9633998,11.3605576 32.5177601,11.3605576 C26.8570726,11.3605576 23.8214604,10.1278294 23.7721404,9.59089678 L23.7367133,7.4517869 C23.7297669,7.03061501 23.3421532,6.6931849 22.8684032,6.6931849 L22.8558995,6.6931849 C22.3758977,6.69934238 21.9931466,7.04908746 22.0000931,7.47395384 L22.0355201,9.60198025 C22.0355201,11.8679343 27.4690576,12.8999286 32.5177601,12.8999286 C34.6857568,12.8999286 38.8557294,12.7564592 41.180022,11.7521736 L41.180022,15.6584813 C41.1376484,15.7496121 41.1133357,15.8487476 41.1133357,15.9534248 C41.1133357,16.2619147 38.9633998,17.4102855 32.5177601,17.4102855 C26.8570726,17.4102855 23.8214604,16.1775572 23.7721404,15.6406246 L23.7367133,13.5015147 C23.7297669,13.0803428 23.3421532,12.7429127 22.8684032,12.7429127 L22.8558995,12.7429127 C22.3758977,12.749686 21.9931466,13.099431 22.0000931,13.5236817 L22.0355201,15.6517081 C22.0355201,17.9176621 27.4690576,18.9496564 32.5177601,18.9496564 C34.6857568,18.9496564 38.8557294,18.8068028 41.180022,17.8019014 L41.180022,21.7082092 C41.1376484,21.7993399 41.1133357,21.8990912 41.1133357,22.0031526 C41.1133357,22.3116426 38.9633998,23.460629 32.5177601,23.460629 C26.8570726,23.460629 23.8214604,22.2279008 23.7721404,21.6909682 L23.7367133,19.5518583 C23.7297669,19.1306864 23.3421532,18.7932563 22.8684032,18.7932563 L22.8558995,18.7932563 C22.3758977,18.7994138 21.9931466,19.1491589 22.0000931,19.5740253 L22.0355201,21.7020517 C22.0355201,23.9680057 27.4690576,25 32.5177601,25 C35.4054122,25 41.8468841,24.7469274 42.7422856,22.5394695 L42.9166422,22.5394695 L42.9166422,3.75237063 C42.9673515,3.60643827 43,3.45557991 43,3.29733258 C43,1.03137854 37.5664625,0 32.5177601,0" id="Fill-11"></path>
                </g>
            </g>
        </g>
    </g>
</svg>