<?xml version="1.0" encoding="UTF-8"?>
<svg width="28px" height="28px" viewBox="0 0 28 28" version="1.1" xmlns="http://www.w3.org/2000/svg" xmlns:xlink="http://www.w3.org/1999/xlink">
    <title>github icon</title>
    <g id="Symbols" stroke="none" stroke-width="1" fill="none" fill-rule="evenodd">
        <g id="CTA/Inset" transform="translate(-208.000000, -6.000000)">
            <g id="CTA" transform="translate(170.000000, 0.000000)">
                <rect id="Rectangle-Copy-2" stroke="#0095D7" x="0" y="0" width="150" height="40"></rect>
                <g id="github-icon" transform="translate(38.000000, 6.000000)">
                    <rect id="Rectangle" x="0" y="0" width="28" height="28"></rect>
                    <circle id="Oval" stroke="#0095D7" stroke-width="2" cx="14" cy="14" r="13"></circle>
                    <path d="M6.36363636,14.1937306 C6.36363636,17.6526231 8.55148185,20.5875866 11.5859631,21.6229471 C11.9680274,21.6950474 12.1072582,21.4532711 12.1072582,21.2456221 C12.1072582,21.0596033 12.1006951,20.5673985 12.0969448,19.9141697 C9.97285479,20.3871477 9.52469103,18.8643891 9.52469103,18.8643891 C9.17731723,17.9597704 8.67664893,17.7189554 8.67664893,17.7189554 C7.98330771,17.2329993 8.72915347,17.2430933 8.72915347,17.2430933 C9.49562602,17.2983702 9.89878589,18.0501362 9.89878589,18.0501362 C10.5804073,19.2465207 11.6862842,18.9009199 12.1213219,18.700481 C12.1907029,18.1943368 12.3880637,17.8496973 12.6060513,17.6535844 C10.9104359,17.4560296 9.12762544,16.7845353 9.12762544,13.7842008 C9.12762544,12.9290911 9.42530743,12.2301987 9.91378719,11.682717 C9.83549916,11.4846814 9.57344525,10.688694 9.98879367,9.61103457 C9.98879367,9.61103457 10.6300991,9.40002098 12.0885065,10.4132707 C12.6979343,10.2397493 13.3509595,10.1527483 14.0002344,10.1498643 C14.6490405,10.1527483 15.3020657,10.2397493 15.912431,10.4132707 C17.3699009,9.40002098 18.0102687,9.61103457 18.0102687,9.61103457 C18.4265548,10.688694 18.1645008,11.4846814 18.0862128,11.682717 C18.5756301,12.2301987 18.8709682,12.9290911 18.8709682,13.7842008 C18.8709682,16.7917453 17.0858138,17.4536262 15.3845729,17.6478164 C15.6588154,17.8895928 15.9025864,18.3673775 15.9025864,19.0975134 C15.9025864,20.14441 15.8936794,20.988945 15.8936794,21.2456221 C15.8936794,21.4551937 16.0310351,21.6984121 16.4187248,21.6219858 C19.4503933,20.5847026 21.6363636,17.6521424 21.6363636,14.1937306 C21.6363636,9.8691537 18.2170054,6.36363636 13.9992968,6.36363636 C9.78299462,6.36363636 6.36363636,9.8691537 6.36363636,14.1937306 Z" id="Shape" fill="#0095D7"></path>
                </g>
            </g>
        </g>
    </g>
</svg>