<?xml version="1.0" encoding="utf-8"?>
<!-- Generator: Adobe Illustrator 24.0.3, SVG Export Plug-In . SVG Version: 6.00 Build 0)  -->
<svg version="1.1" id="Layer_5" xmlns="http://www.w3.org/2000/svg" xmlns:xlink="http://www.w3.org/1999/xlink" x="0px" y="0px"
	 viewBox="0 0 431.3 150" style="enable-background:new 0 0 431.3 150;" xml:space="preserve">
<style type="text/css">
	.st0{fill:#FFFFFF;}
	.st1{fill:none;}
	.st2{fill:#009BDB;}
	.st3{fill:#717074;}
</style>
<g>
	<g>
		<g>
			<path class="st0" d="M196.6,55.8l-18.2,41.2h-5.1l-18.2-41.2h5.1l15.7,35.5l15.6-35.5H196.6z"/>
			<path class="st0" d="M206.6,60.3v13.6h22.4v4.4h-22.4v14.3h24.8v4.4h-29.6V55.8h29.6v4.4H206.6z"/>
			<path class="st0" d="M265.7,92.6v4.4h-27.2V55.8h4.7v36.8H265.7z"/>
			<path class="st0" d="M275.7,60.3v13.6h22.4v4.4h-22.4v14.3h24.8v4.4H271V55.8h29.6v4.4H275.7z"/>
			<path class="st0" d="M338,75.3c-1.1,1.9-2.6,3.4-4.6,4.6c-2,1.2-4.2,1.9-6.6,2.2l10.5,14.9H332l-10.4-14.8h-9.1v14.8h-4.7V55.8
				h16.7c2.8,0,5.4,0.6,7.7,1.7c2.3,1.1,4.1,2.7,5.5,4.7c1.3,2,2,4.3,2,6.8C339.6,71.3,339.1,73.4,338,75.3z M312.4,77.8h11.2
				c3.4,0,6.1-0.8,8.2-2.3c2.1-1.6,3.1-3.7,3.1-6.4c0-2.7-1-4.9-3.1-6.4c-2.1-1.6-4.8-2.3-8.2-2.3h-11.2V77.8z"/>
			<path class="st0" d="M354.4,94.9c-3.3-1.9-5.8-4.5-7.8-7.8c-1.9-3.3-2.9-6.8-2.9-10.6c0-3.8,1-7.3,2.9-10.6
				c1.9-3.3,4.5-5.9,7.8-7.8c3.3-1.9,6.8-2.9,10.5-2.9c3.8,0,7.2,1,10.5,2.9c3.2,1.9,5.8,4.5,7.7,7.8c1.9,3.3,2.9,6.8,2.9,10.6
				c0,3.8-1,7.3-2.9,10.6c-1.9,3.3-4.5,5.9-7.7,7.8c-3.2,1.9-6.7,2.9-10.5,2.9C361.2,97.8,357.7,96.8,354.4,94.9z M373,91.1
				c2.5-1.6,4.5-3.6,6-6.2c1.5-2.6,2.2-5.4,2.2-8.5c0-3-0.7-5.8-2.2-8.4c-1.5-2.6-3.5-4.7-6-6.2c-2.5-1.5-5.2-2.3-8.1-2.3
				c-2.9,0-5.6,0.8-8.1,2.3c-2.5,1.5-4.5,3.6-6,6.2c-1.5,2.6-2.2,5.4-2.2,8.4c0,3,0.8,5.9,2.2,8.5c1.5,2.6,3.5,4.7,6,6.2
				s5.2,2.3,8.1,2.3C367.8,93.5,370.5,92.7,373,91.1z"/>
		</g>
	</g>
	<g>
		<g>
			<path class="st1" d="M132.2,77.1c0-0.7,0.1-1.4,0.1-2s0-1.4-0.1-2V77.1z"/>
			<path class="st2" d="M117,109.3c-3.3,0-4.9,1.2-6.7,2.7c-2,1.6-4.2,3.4-8.6,3.4c-4.3,0-6.6-1.8-8.6-3.4c-1.8-1.4-3.4-2.7-6.7-2.7
				c-3.3,0-4.9,1.2-6.7,2.7c-2,1.6-4.2,3.4-8.6,3.4c-4.3,0-6.6-1.8-8.6-3.4c-1.8-1.4-3.4-2.7-6.7-2.7c-3.3,0-4.9,1.2-6.7,2.7
				c-1.3,1-2.7,2.2-4.8,2.8c8.3,7.3,18.9,12,30.5,13c0.3,0,0.6,0.1,1,0.1c1.1,0.1,2.3,0.1,3.4,0.1c1.2,0,2.3-0.1,3.4-0.1
				c0.3,0,0.6,0,1-0.1c14.2-1.2,26.8-8,35.6-18.2C118.7,109.4,117.9,109.3,117,109.3z"/>
			<path class="st2" d="M40.8,69.8c3.6,0,5.3-1.4,7.2-2.9c2-1.6,4-3.2,8-3.2s6.1,1.6,8,3.2c1.9,1.5,3.6,2.9,7.2,2.9
				c3.6,0,5.3-1.4,7.2-2.9c2-1.6,4-3.2,8-3.2c4,0,6.1,1.6,8,3.2c1.9,1.5,3.6,2.9,7.2,2.9c3.6,0,5.3-1.4,7.2-2.9c2-1.6,4-3.2,8-3.2
				c4,0,6.1,1.6,8,3.2c1.8,1.5,3.6,2.8,7,2.9c-0.5-4.8-1.6-9.5-3.3-13.8c-1.8-0.6-3.1-1.6-4.4-2.6c-1.9-1.5-3.7-2.9-7.4-2.9
				c-3.7,0-5.5,1.4-7.4,2.9c-1.9,1.5-3.9,3.1-7.9,3.1c-4,0-5.9-1.6-7.9-3.1c-1.9-1.5-3.7-2.9-7.4-2.9c-3.7,0-5.5,1.4-7.4,2.9
				c-1.9,1.5-3.9,3.1-7.9,3.1c-4,0-5.9-1.6-7.9-3.1c-1.9-1.5-3.7-2.9-7.4-2.9c-3.7,0-5.5,1.4-7.4,2.9c-1.9,1.5-3.9,3.1-7.9,3.1
				c-4,0-5.9-1.6-7.9-3.1c-0.4-0.3-0.9-0.7-1.3-1c-1.7,3.6-3.1,7.5-3.9,11.6c2.7,0.5,4.3,1.7,5.9,3C35.5,68.4,37.2,69.8,40.8,69.8z"
				/>
			<path class="st2" d="M40.8,55.7c3.7,0,5.5-1.4,7.4-2.9c1.9-1.5,3.9-3.1,7.9-3.1c4,0,5.9,1.6,7.9,3.1c1.9,1.5,3.7,2.9,7.4,2.9
				c3.7,0,5.5-1.4,7.4-2.9c1.9-1.5,3.9-3.1,7.9-3.1c4,0,5.9,1.6,7.9,3.1c1.9,1.5,3.7,2.9,7.4,2.9c3.7,0,5.5-1.4,7.4-2.9
				c1.9-1.5,3.9-3.1,7.9-3.1c4,0,5.9,1.6,7.9,3.1c1.1,0.8,2.1,1.7,3.4,2.2c-7.9-19.2-26.9-32.8-48.9-32.8c-20.8,0-38.7,12-47.4,29.5
				c0.5,0.4,1,0.7,1.4,1.1C35.3,54.2,37.1,55.7,40.8,55.7z"/>
			<path class="st2" d="M117,94.6c-3.4,0-5,1.3-6.8,2.8c-1.9,1.5-4.1,3.3-8.4,3.3c-4.2,0-6.4-1.7-8.4-3.3c-1.9-1.5-3.5-2.8-6.8-2.8
				c-3.4,0-5,1.3-6.8,2.8c-1.9,1.5-4.1,3.3-8.4,3.3c-4.2,0-6.4-1.7-8.4-3.3c-1.9-1.5-3.5-2.8-6.8-2.8c-3.4,0-5,1.3-6.8,2.8
				c-1.9,1.5-4.1,3.3-8.4,3.3c-4.2,0-6.4-1.7-8.4-3.3c-0.5-0.4-1-0.8-1.5-1.1c2.6,6,6.3,11.4,10.9,16c2.6-0.2,4-1.4,5.6-2.6
				c2-1.6,4.2-3.4,8.6-3.4s6.6,1.8,8.6,3.4c1.8,1.4,3.4,2.7,6.7,2.7c3.3,0,4.9-1.2,6.7-2.7c2-1.6,4.2-3.4,8.6-3.4
				c4.3,0,6.6,1.8,8.6,3.4c1.8,1.4,3.4,2.7,6.7,2.7c3.3,0,4.9-1.2,6.7-2.7c2-1.6,4.2-3.4,8.6-3.4c1.8,0,3.3,0.3,4.5,0.8
				c1.9-2.5,3.5-5.1,5-7.9c-1-0.6-1.8-1.2-2.6-1.8C122,95.8,120.3,94.6,117,94.6z"/>
			<path class="st2" d="M132.1,71.2c-4,0-6-1.6-8-3.2c-1.9-1.5-3.6-2.9-7.2-2.9c-3.6,0-5.3,1.4-7.2,2.9c-2,1.6-4,3.2-8,3.2
				c-4,0-6.1-1.6-8-3.2c-1.9-1.5-3.6-2.9-7.2-2.9c-3.6,0-5.3,1.4-7.2,2.9c-2,1.6-4,3.2-8,3.2c-4,0-6.1-1.6-8-3.2
				c-1.9-1.5-3.6-2.9-7.2-2.9c-3.6,0-5.3,1.4-7.2,2.9c-2,1.6-4,3.2-8,3.2c-4,0-6.1-1.6-8-3.2c-1.5-1.2-3-2.3-5.3-2.7
				c-0.5,2.5-0.8,5.1-0.9,7.7c0,0.7-0.1,1.4-0.1,2c0,0.7,0,1.4,0.1,2c0,0.3,0,0.6,0,0.9c3.5,0.3,5.4,1.8,7.2,3.2
				c1.8,1.4,3.5,2.8,7,2.8c3.5,0,5.2-1.4,7-2.8c1.9-1.5,4.1-3.2,8.2-3.2s6.3,1.7,8.2,3.2c1.8,1.4,3.5,2.8,7,2.8c3.5,0,5.2-1.4,7-2.8
				c1.9-1.5,4.1-3.2,8.2-3.2c4.1,0,6.3,1.7,8.2,3.2c1.8,1.4,3.5,2.8,7,2.8c3.5,0,5.2-1.4,7-2.8c1.9-1.5,4.1-3.2,8.2-3.2
				c4.1,0,6.3,1.7,8.2,3.2c1.7,1.3,3.3,2.6,6.3,2.8c0.3-1.6,0.5-3.2,0.6-4.9c0-0.6,0.1-1.3,0.1-1.9V73
				C132.2,72.4,132.1,71.2,132.1,71.2z"/>
			<path class="st2" d="M117,79.9c-3.5,0-5.2,1.4-7,2.8c-1.9,1.5-4.1,3.2-8.2,3.2c-4.1,0-6.3-1.7-8.2-3.2c-1.8-1.4-3.5-2.8-7-2.8
				c-3.5,0-5.2,1.4-7,2.8c-1.9,1.5-4.1,3.2-8.2,3.2c-4.1,0-6.3-1.7-8.2-3.2c-1.8-1.4-3.5-2.8-7-2.8c-3.5,0-5.2,1.4-7,2.8
				c-1.9,1.5-4.1,3.2-8.2,3.2c-4.1,0-6.3-1.7-8.2-3.2c-1.6-1.3-3.1-2.5-5.8-2.8c0.4,4.5,1.4,8.7,2.8,12.8c1.9,0.6,3.2,1.7,4.4,2.7
				c1.9,1.5,3.5,2.8,6.8,2.8c3.4,0,5-1.3,6.8-2.8c1.9-1.5,4.1-3.3,8.4-3.3c4.2,0,6.4,1.7,8.4,3.3c1.9,1.5,3.5,2.8,6.8,2.8
				c3.4,0,5-1.3,6.8-2.8c1.9-1.5,4.1-3.3,8.4-3.3c4.2,0,6.4,1.7,8.4,3.3c1.9,1.5,3.5,2.8,6.8,2.8c3.4,0,5-1.3,6.8-2.8
				c1.9-1.5,4.1-3.3,8.4-3.3c4.2,0,6.4,1.7,8.4,3.3c0.7,0.6,1.4,1.1,2.2,1.6c1.6-3.5,2.8-7.2,3.6-11.1c-3.5-0.3-5.4-1.8-7.2-3.2
				C122.2,81.2,120.4,79.9,117,79.9z"/>
			<path class="st0" d="M108.4,109.6c-1.8,1.4-3.4,2.7-6.7,2.7c-3.3,0-4.9-1.2-6.7-2.7c-2-1.6-4.2-3.4-8.6-3.4
				c-4.3,0-6.6,1.8-8.6,3.4c-1.8,1.4-3.4,2.7-6.7,2.7c-3.3,0-4.9-1.2-6.7-2.7c-2-1.6-4.2-3.4-8.6-3.4s-6.6,1.8-8.6,3.4
				c-1.6,1.3-3,2.4-5.6,2.6c0.9,0.9,1.8,1.7,2.7,2.5c2.1-0.6,3.5-1.8,4.8-2.8c1.8-1.4,3.4-2.7,6.7-2.7c3.3,0,4.9,1.2,6.7,2.7
				c2,1.6,4.2,3.4,8.6,3.4c4.3,0,6.6-1.8,8.6-3.4c1.8-1.4,3.4-2.7,6.7-2.7c3.3,0,4.9,1.2,6.7,2.7c2,1.6,4.2,3.4,8.6,3.4
				c4.3,0,6.6-1.8,8.6-3.4c1.8-1.4,3.4-2.7,6.7-2.7c0.9,0,1.7,0.1,2.4,0.3c0.7-0.8,1.4-1.7,2-2.5c-1.2-0.5-2.7-0.8-4.5-0.8
				C112.6,106.2,110.4,108,108.4,109.6z"/>
			<path class="st0" d="M117,92.1c-4.2,0-6.4,1.7-8.4,3.3c-1.9,1.5-3.5,2.8-6.8,2.8c-3.4,0-5-1.3-6.8-2.8c-1.9-1.5-4.1-3.3-8.4-3.3
				c-4.2,0-6.4,1.7-8.4,3.3c-1.9,1.5-3.5,2.8-6.8,2.8c-3.4,0-5-1.3-6.8-2.8c-1.9-1.5-4.1-3.3-8.4-3.3c-4.2,0-6.4,1.7-8.4,3.3
				c-1.9,1.5-3.5,2.8-6.8,2.8c-3.4,0-5-1.3-6.8-2.8c-1.2-1-2.5-2-4.4-2.7c0.4,1.2,0.9,2.3,1.4,3.5c0.5,0.3,1,0.7,1.5,1.1
				c1.9,1.5,4.1,3.3,8.4,3.3c4.2,0,6.4-1.7,8.4-3.3c1.9-1.5,3.5-2.8,6.8-2.8c3.4,0,5,1.3,6.8,2.8c1.9,1.5,4.1,3.3,8.4,3.3
				c4.2,0,6.4-1.7,8.4-3.3c1.9-1.5,3.5-2.8,6.8-2.8c3.4,0,5,1.3,6.8,2.8c1.9,1.5,4.1,3.3,8.4,3.3c4.2,0,6.4-1.7,8.4-3.3
				c1.9-1.5,3.5-2.8,6.8-2.8c3.4,0,5,1.3,6.8,2.8c0.8,0.6,1.6,1.3,2.6,1.8c0.4-0.7,0.7-1.5,1.1-2.2c-0.8-0.4-1.4-1-2.2-1.6
				C123.4,93.8,121.2,92.1,117,92.1z"/>
			<path class="st0" d="M117,77.9c-4.1,0-6.3,1.7-8.2,3.2c-1.8,1.4-3.5,2.8-7,2.8c-3.5,0-5.2-1.4-7-2.8c-1.9-1.5-4.1-3.2-8.2-3.2
				c-4.1,0-6.3,1.7-8.2,3.2c-1.8,1.4-3.5,2.8-7,2.8c-3.5,0-5.2-1.4-7-2.8c-1.9-1.5-4.1-3.2-8.2-3.2c-4.1,0-6.3,1.7-8.2,3.2
				c-1.8,1.4-3.5,2.8-7,2.8c-3.5,0-5.2-1.4-7-2.8c-1.7-1.4-3.7-2.9-7.2-3.2c0,0.6,0.1,1.3,0.1,1.9c2.7,0.3,4.2,1.5,5.8,2.8
				c1.9,1.5,4.1,3.2,8.2,3.2c4.1,0,6.3-1.7,8.2-3.2c1.8-1.4,3.5-2.8,7-2.8c3.5,0,5.2,1.4,7,2.8c1.9,1.5,4.1,3.2,8.2,3.2
				c4.1,0,6.3-1.7,8.2-3.2c1.8-1.4,3.5-2.8,7-2.8c3.5,0,5.2,1.4,7,2.8c1.9,1.5,4.1,3.2,8.2,3.2c4.1,0,6.3-1.7,8.2-3.2
				c1.8-1.4,3.5-2.8,7-2.8c3.5,0,5.2,1.4,7,2.8c1.7,1.4,3.7,2.9,7.2,3.2c0.1-0.6,0.2-1.3,0.3-1.9c-3-0.2-4.6-1.4-6.3-2.8
				C123.3,79.6,121.1,77.9,117,77.9z"/>
			<path class="st0" d="M40.8,71.2c4,0,6.1-1.6,8-3.2c1.9-1.5,3.6-2.9,7.2-2.9c3.6,0,5.3,1.4,7.2,2.9c2,1.6,4,3.2,8,3.2
				c4,0,6.1-1.6,8-3.2c1.9-1.5,3.6-2.9,7.2-2.9c3.6,0,5.3,1.4,7.2,2.9c2,1.6,4,3.2,8,3.2c4,0,6.1-1.6,8-3.2c1.9-1.5,3.6-2.9,7.2-2.9
				c3.6,0,5.3,1.4,7.2,2.9c1.9,1.5,4,3.1,8,3.2l0-0.1c0-0.4-0.1-0.8-0.1-1.3c-3.4-0.1-5.2-1.4-7-2.9c-2-1.6-4-3.2-8-3.2
				c-4,0-6.1,1.6-8,3.2c-1.9,1.5-3.6,2.9-7.2,2.9c-3.6,0-5.3-1.4-7.2-2.9c-2-1.6-4-3.2-8-3.2c-4,0-6.1,1.6-8,3.2
				c-1.9,1.5-3.6,2.9-7.2,2.9c-3.6,0-5.3-1.4-7.2-2.9c-2-1.6-4-3.2-8-3.2s-6.1,1.6-8,3.2c-1.9,1.5-3.6,2.9-7.2,2.9
				c-3.6,0-5.3-1.4-7.2-2.9c-1.6-1.3-3.2-2.5-5.9-3c-0.1,0.4-0.2,0.9-0.3,1.3c2.4,0.4,3.8,1.5,5.3,2.7
				C34.7,69.6,36.7,71.2,40.8,71.2z"/>
			<path class="st0" d="M40.8,56.5c4,0,5.9-1.6,7.9-3.1c1.9-1.5,3.7-2.9,7.4-2.9c3.7,0,5.5,1.4,7.4,2.9c1.9,1.5,3.9,3.1,7.9,3.1
				c4,0,5.9-1.6,7.9-3.1c1.9-1.5,3.7-2.9,7.4-2.9c3.7,0,5.5,1.4,7.4,2.9c1.9,1.5,3.9,3.1,7.9,3.1c4,0,5.9-1.6,7.9-3.1
				c1.9-1.5,3.7-2.9,7.4-2.9c3.7,0,5.5,1.4,7.4,2.9c1.3,1,2.5,2,4.4,2.6c-0.1-0.3-0.3-0.7-0.4-1c-1.3-0.6-2.4-1.4-3.4-2.2
				c-1.9-1.5-3.9-3.1-7.9-3.1c-4,0-5.9,1.6-7.9,3.1c-1.9,1.5-3.7,2.9-7.4,2.9c-3.7,0-5.5-1.4-7.4-2.9c-1.9-1.5-3.9-3.1-7.9-3.1
				c-4,0-5.9,1.6-7.9,3.1c-1.9,1.5-3.7,2.9-7.4,2.9c-3.7,0-5.5-1.4-7.4-2.9C62,51.2,60,49.6,56,49.6c-4,0-5.9,1.6-7.9,3.1
				c-1.9,1.5-3.7,2.9-7.4,2.9c-3.7,0-5.5-1.4-7.4-2.9C33,52.4,32.5,52,32,51.6c-0.1,0.2-0.3,0.5-0.4,0.8c0.4,0.3,0.9,0.6,1.3,1
				C34.8,54.9,36.8,56.5,40.8,56.5z"/>
		</g>
	</g>
</g>
</svg>
