<?xml version="1.0" encoding="UTF-8"?>
<svg width="87px" height="76px" viewBox="0 0 87 76" version="1.1" xmlns="http://www.w3.org/2000/svg" xmlns:xlink="http://www.w3.org/1999/xlink">
    <!-- Generator: Sketch 53.2 (72643) - https://sketchapp.com -->
    <title>icon</title>
    <desc>Created with Sketch.</desc>
    <defs>
        <polygon id="path-1" points="0 0.0531818182 86.9134981 0.0531818182 86.9134981 49.505 0 49.505"></polygon>
        <polygon id="path-3" points="0.331 0.387265041 9.681 0.387265041 9.681 37.3333333 0.331 37.3333333"></polygon>
    </defs>
    <g id="Designs" stroke="none" stroke-width="1" fill="none" fill-rule="evenodd">
        <g id="Home-Page-Velloro-Rd2" transform="translate(-316.000000, -1756.000000)">
            <g id="Use-Cases" transform="translate(0.000000, 1051.000000)">
                <g id="Critical-Migration-Copy-2" transform="translate(250.000000, 633.000000)">
                    <g id="icon" transform="translate(66.000000, 72.000000)">
                        <g id="Group-3">
                            <mask id="mask-2" fill="white">
                                <use xlink:href="#path-1"></use>
                            </mask>
                            <g id="Clip-2"></g>
                            <path d="M74.861599,18.5968182 C73.926515,8.36409091 66.1865035,0.292272727 56.5735846,0.0595454545 C56.4192593,0.055 56.2631075,0.0531818182 56.1087822,0.0531818182 C48.3368098,0.0531818182 41.6195465,5.24954545 38.7229778,12.6868182 C36.7468823,11.7322727 34.5607583,11.2031818 32.2312669,11.1386364 C32.0988575,11.135 31.9664482,11.1340909 31.834952,11.1340909 C24.1853442,11.1340909 17.7648604,16.5404545 16.1905589,23.8513636 C15.19064,23.5759091 14.130452,23.4268182 13.048348,23.4059091 C12.9442469,23.4040909 12.8392325,23.4022727 12.7360446,23.4022727 C5.84253979,23.4013636 0.16720105,28.9122727 0.00283082061,35.8413636 C-0.163365744,42.8759091 6.27446823,49.3086364 13.3067745,49.4995455 C13.4830159,49.5031818 14.0007822,49.505 14.8034568,49.505 C17.8580035,49.505 25.0619854,49.4822727 33.4074272,49.4531818 L33.4074272,47.1804545 C25.1112965,47.2086364 17.8461323,47.2322727 14.8034568,47.2322727 C14.0236114,47.2322727 13.521369,47.2304545 13.3688699,47.2277273 C7.53737948,47.0695455 2.15060181,41.5622727 2.2848375,35.895 C2.41907319,30.2595455 7.10727739,25.6740909 12.7351314,25.675 C12.8209692,25.675 12.906807,25.6759091 13.0026896,25.6786364 C13.9048995,25.6959091 14.7724091,25.8177273 15.5805627,26.0413636 L17.9146199,26.685 L18.4223413,24.3277273 C19.785701,17.9995455 25.4254262,13.4068182 31.834952,13.4068182 C31.9472717,13.4068182 32.0614177,13.4077273 32.1682583,13.4104545 C34.1543986,13.465 36.0245665,13.9095455 37.7267115,14.7313636 L39.9557545,15.8077273 L40.8515722,13.5077273 C43.4970198,6.715 49.4855751,2.32590909 56.1087822,2.32590909 C56.2430178,2.32590909 56.3781667,2.32772727 56.5187946,2.33136364 C64.8395808,2.53318182 71.7476963,9.61409091 72.5878108,18.8031818 L72.7594864,20.6804545 L74.644265,20.8595455 C80.4173127,21.4086364 84.801432,27.275 84.6251906,34.2240909 C84.4690388,41.3059091 79.5424978,47.0686364 73.6425198,47.0686364 C73.5630741,47.0686364 73.4827154,47.0677273 73.3895722,47.065 C73.2188098,47.0613636 72.6946514,47.0595455 71.8737135,47.0595455 C69.1223385,47.0595455 62.8406562,47.0786364 55.4759568,47.1031818 L55.4759568,49.3759091 C62.8817488,49.3513636 69.1132068,49.3322727 71.8737135,49.3322727 C72.6690827,49.3322727 73.1768041,49.3340909 73.3430007,49.3368182 C73.442536,49.3395455 73.5429844,49.3413636 73.6425198,49.3413636 C80.7926247,49.3413636 86.7236505,42.6322727 86.9081104,34.2740909 C87.1163127,26.055 81.7688012,19.2540909 74.861599,18.5968182" id="Fill-1" stroke="#FFFFFF" stroke-width="0.4" fill="#FFFFFF" mask="url(#mask-2)"></path>
                        </g>
                        <polygon id="Fill-4" stroke="#FFFFFF" stroke-width="0.4" fill="#FFFFFF" points="38.2967914 64 40.7032086 61.7207767 40.7032086 34.3801252 44 34.3801252 39.5 27 35 34.3801252 38.2967914 34.3801252"></polygon>
                        <g id="Group-8" transform="translate(46.000000, 38.000000)">
                            <mask id="mask-4" fill="white">
                                <use xlink:href="#path-3"></use>
                            </mask>
                            <g id="Clip-7"></g>
                            <polygon id="Fill-6" stroke="#FFFFFF" stroke-width="0.4" fill="#FFFFFF" mask="url(#mask-4)" points="6.256 29.961639 6.256 0.387265041 3.756 2.6636878 3.756 29.961639 0.331 29.961639 5.006 37.3336065 9.681 29.961639"></polygon>
                        </g>
                    </g>
                </g>
            </g>
        </g>
    </g>
</svg>