<?xml version="1.0" encoding="UTF-8"?>
<svg width="96px" height="75px" viewBox="0 0 96 75" version="1.1" xmlns="http://www.w3.org/2000/svg" xmlns:xlink="http://www.w3.org/1999/xlink">
    <!-- Generator: Sketch 53.2 (72643) - https://sketchapp.com -->
    <title>Group 26</title>
    <desc>Created with Sketch.</desc>
    <defs>
        <polygon id="path-1" points="0 0.674 8.7138 0.674 8.7138 9.457 0 9.457"></polygon>
        <polygon id="path-3" points="0.1323 0.111 14.246 0.111 14.246 8.895 0.1323 8.895"></polygon>
        <polygon id="path-5" points="0.7656 0.298 9.6166 0.298 9.6166 14.3209 0.7656 14.3209"></polygon>
    </defs>
    <g id="Designs" stroke="none" stroke-width="1" fill="none" fill-rule="evenodd">
        <g id="Home-Page-Velloro-Rd2" transform="translate(-1035.000000, -1507.000000)">
            <g id="Use-Cases" transform="translate(0.000000, 1051.000000)">
                <g id="Critical-Migration-Copy" transform="translate(250.000000, 383.000000)">
                    <g id="Group-26" transform="translate(785.000000, 72.000000)">
                        <path d="M8.5781,37.3013 C8.7441,37.7613 8.8501,38.2503 8.8501,38.7673 C8.8501,39.1253 8.7951,39.4683 8.7141,39.8013 L10.8651,39.8013 C11.0551,38.9293 11.3411,38.0933 11.7071,37.3013 L8.5781,37.3013 Z" id="Fill-1" fill="#FFFFFF"></path>
                        <g id="Group-5" transform="translate(0.000000, 33.701700)">
                            <mask id="mask-2" fill="white">
                                <use xlink:href="#path-1"></use>
                            </mask>
                            <g id="Clip-4"></g>
                            <path d="M4.4248,6.957 C3.3628,6.957 2.4998,6.108 2.4998,5.065 C2.4998,4.022 3.3628,3.174 4.4248,3.174 C5.4868,3.174 6.3508,4.022 6.3508,5.065 C6.3508,6.108 5.4868,6.957 4.4248,6.957 L4.4248,6.957 Z M7.2678,3.6 L8.5778,3.6 C7.9668,1.9 6.3448,0.674 4.4248,0.674 C1.9858,0.674 -0.0002,2.644 -0.0002,5.065 C-0.0002,7.487 1.9858,9.457 4.4248,9.457 C6.5048,9.457 8.2408,8.021 8.7138,6.1 L7.2678,6.1 L7.2678,3.6 Z" id="Fill-3" fill="#FFFFFF" mask="url(#mask-2)"></path>
                        </g>
                        <path d="M8.5781,37.3013 L7.2671,37.3013 L7.2671,39.8013 L8.7141,39.8013 C8.7951,39.4683 8.8501,39.1253 8.8501,38.7673 C8.8501,38.2503 8.7441,37.7613 8.5781,37.3013" id="Fill-6" fill="#FFFFFF"></path>
                        <path d="M49.7295,71.3096 C49.7295,72.3526 48.8665,73.2016 47.8045,73.2016 C46.7435,73.2016 45.8795,72.3526 45.8795,71.3096 C45.8795,70.2666 46.7435,69.4176 47.8045,69.4176 C48.8665,69.4176 49.7295,70.2666 49.7295,71.3096 L49.7295,71.3096 Z M46.5545,67.1186 C44.7265,67.6576 43.3795,69.3216 43.3795,71.3096 C43.3795,73.7316 45.3655,75.7016 47.8045,75.7016 C50.2445,75.7016 52.2295,73.7316 52.2295,71.3096 C52.2295,69.3216 50.8825,67.6576 49.0545,67.1186 L49.0545,54.9986 C48.2245,55.0016 47.3905,55.0046 46.5545,55.0076 L46.5545,67.1186 Z" id="Fill-8" fill="#FFFFFF"></path>
                        <g id="Group-12" transform="translate(81.000000, 33.701700)">
                            <mask id="mask-4" fill="white">
                                <use xlink:href="#path-3"></use>
                            </mask>
                            <g id="Clip-11"></g>
                            <path d="M9.8213,6.395 C8.7593,6.395 7.8963,5.546 7.8963,4.503 C7.8963,3.46 8.7593,2.611 9.8213,2.611 C10.8833,2.611 11.7463,3.46 11.7463,4.503 C11.7463,5.546 10.8833,6.395 9.8213,6.395 M9.8213,0.111 C7.8843,0.111 6.2513,1.362 5.6533,3.086 L0.1323,3.086 C0.3323,3.894 0.4693,4.729 0.5403,5.586 L5.5493,5.586 C6.0383,7.482 7.7603,8.895 9.8213,8.895 C12.2603,8.895 14.2463,6.925 14.2463,4.503 C14.2463,2.082 12.2603,0.111 9.8213,0.111" id="Fill-10" fill="#FFFFFF" mask="url(#mask-4)"></path>
                        </g>
                        <g id="Group-15" transform="translate(43.000000, 0.701700)">
                            <mask id="mask-6" fill="white">
                                <use xlink:href="#path-5"></use>
                            </mask>
                            <g id="Clip-14"></g>
                            <path d="M3.2656,4.6899 C3.2656,3.6469 4.1296,2.7979 5.1916,2.7979 C6.2526,2.7979 7.1166,3.6469 7.1166,4.6899 C7.1166,5.7329 6.2526,6.5819 5.1916,6.5819 C4.1296,6.5819 3.2656,5.7329 3.2656,4.6899 L3.2656,4.6899 Z M6.4416,8.8809 C8.2696,8.3419 9.6166,6.6779 9.6166,4.6899 C9.6166,2.2689 7.6306,0.2979 5.1916,0.2979 C2.7506,0.2979 0.7656,2.2689 0.7656,4.6899 C0.7656,6.6779 2.1126,8.3419 3.9416,8.8809 L3.9416,14.3209 C4.7376,13.7939 5.5726,13.3349 6.4416,12.9559 L6.4416,8.8809 Z" id="Fill-13" fill="#FFFFFF" mask="url(#mask-6)"></path>
                        </g>
                        <path d="M23.0811,11.6299 C23.1981,11.3149 23.2721,10.9789 23.2721,10.6229 C23.2721,9.0189 21.9581,7.7169 20.3361,7.7169 C18.7141,7.7169 17.3981,9.0189 17.3981,10.6229 C17.3981,12.2279 18.7141,13.5289 20.3361,13.5289 C20.6671,13.5289 20.9801,13.4629 21.2781,13.3619 L30.5091,22.4969 C31.3051,22.0739 32.1381,21.7199 33.0051,21.4499 L23.0811,11.6299 Z" id="Fill-16" fill="#FFFFFF"></path>
                        <path d="M68.7402,19.0664 L72.2862,15.5584 C73.3182,15.9614 74.5352,15.7734 75.3912,14.9654 C76.5652,13.8584 76.6092,12.0194 75.4902,10.8574 C74.3712,9.6954 72.5122,9.6514 71.3392,10.7584 C70.5002,11.5494 70.2492,12.7114 70.5742,13.7344 L67.0972,17.1754 C67.6852,17.7624 68.2342,18.3934 68.7402,19.0664" id="Fill-18" fill="#FFFFFF"></path>
                        <path d="M65.5469,58.2852 C65.2569,59.2512 65.4699,60.3362 66.2239,61.1182 C67.3429,62.2802 69.2009,62.3242 70.3749,61.2162 C71.5499,60.1092 71.5939,58.2692 70.4749,57.1082 C69.6159,56.2172 68.3249,55.9902 67.2389,56.4292 L65.8929,54.9462 C64.9489,54.9482 63.8139,54.9512 62.5219,54.9542 L65.5469,58.2852 Z" id="Fill-20" fill="#FFFFFF"></path>
                        <path d="M22.1758,63.0098 C21.5638,62.8268 20.8908,62.8268 20.2498,63.0778 C18.7418,63.6698 18.0038,65.3578 18.6018,66.8498 C19.1978,68.3428 20.9048,69.0728 22.4128,68.4818 C23.9208,67.8908 24.6588,66.2018 24.0628,64.7098 C24.0578,64.6978 24.0508,64.6898 24.0458,64.6778 L33.8698,55.0518 C32.5988,55.0558 31.3918,55.0598 30.2848,55.0638 L22.1758,63.0098 Z" id="Fill-22" fill="#FFFFFF"></path>
                        <path d="M55.7051,14.8423 C49.8011,14.8423 44.6981,18.8073 42.4981,24.4823 C40.9971,23.7543 39.3361,23.3503 37.5661,23.3013 C37.4661,23.2993 37.3651,23.2973 37.2661,23.2973 C31.4541,23.2973 26.5771,27.4233 25.3821,33.0013 C24.6221,32.7903 23.8161,32.6773 22.9941,32.6613 C22.9151,32.6593 22.8361,32.6583 22.7581,32.6583 C17.5211,32.6583 13.2101,36.8633 13.0851,42.1503 C12.9591,47.5173 17.8491,52.4263 23.1911,52.5713 C23.3241,52.5743 23.7181,52.5753 24.3281,52.5753 C30.7541,52.5753 61.3131,52.4443 67.6791,52.4443 C68.2841,52.4443 68.6701,52.4453 68.7961,52.4473 C68.8721,52.4503 68.9481,52.4513 69.0241,52.4513 C74.4551,52.4513 78.9611,47.3313 79.1011,40.9543 C79.2591,34.6823 75.1971,29.4933 69.9501,28.9913 C69.2391,21.1833 63.3591,15.0253 56.0591,14.8473 C55.9401,14.8433 55.8221,14.8423 55.7051,14.8423 M55.7051,17.3423 C55.8001,17.3423 55.8951,17.3433 55.9971,17.3463 C61.9301,17.4903 66.8571,22.5943 67.4601,29.2183 L67.6481,31.2833 L69.7121,31.4803 C73.6991,31.8613 76.7251,35.9953 76.6011,40.8993 C76.4921,45.8903 73.0931,49.9513 69.0241,49.9513 L68.8481,49.9483 C68.7161,49.9463 68.3121,49.9443 67.6791,49.9443 C64.4991,49.9443 55.1371,49.9773 46.0831,50.0093 C36.9691,50.0423 27.5441,50.0753 24.3281,50.0753 C23.7441,50.0753 23.3671,50.0743 23.2591,50.0723 C19.2221,49.9633 15.4921,46.1413 15.5851,42.2093 C15.6761,38.3213 18.8931,35.1583 22.7581,35.1583 L22.9451,35.1613 C23.5661,35.1733 24.1611,35.2573 24.7141,35.4103 L27.2691,36.1193 L27.8261,33.5253 C28.7861,29.0473 32.7561,25.7973 37.2661,25.7973 C37.3451,25.7973 37.4261,25.7983 37.4981,25.8003 C38.8971,25.8393 40.2131,26.1523 41.4071,26.7313 L43.8491,27.9153 L44.8291,25.3853 C46.7241,20.4993 50.9921,17.3423 55.7051,17.3423" id="Fill-24" fill="#FFFFFF"></path>
                    </g>
                </g>
            </g>
        </g>
    </g>
</svg>