<?xml version="1.0" encoding="UTF-8"?>
<svg width="18px" height="18px" viewBox="0 0 18 18" version="1.1" xmlns="http://www.w3.org/2000/svg" xmlns:xlink="http://www.w3.org/1999/xlink">
    <!-- Generator: Sketch 47.1 (45422) - http://www.bohemiancoding.com/sketch -->
    <title>github-logo</title>
    <desc>Created with Sketch.</desc>
    <defs></defs>
    <g id="Ark" stroke="none" stroke-width="1" fill="none" fill-rule="evenodd">
        <g id="Desktop-HD-Copy-2" transform="translate(-1325.000000, -15.000000)" fill-rule="nonzero" fill="#FFFFFF">
            <g id="Group-2">
                <g id="icons-social" transform="translate(1325.000000, 15.000000)">
                    <g id="github-logo">
                        <path d="M8.95804196,0 C4.01099828,0 0,3.97274772 0,8.87261433 C0,12.7933741 2.56647902,16.1184383 6.1263909,17.2914083 C6.57418802,17.3726482 6.73767228,17.0986196 6.73767228,16.8646737 C6.73767228,16.6534639 6.72946658,15.9538097 6.72509253,15.2129811 C4.23407452,15.7490984 3.70754461,14.1667231 3.70754461,14.1667231 C3.29967376,13.1421267 2.712992,12.8691899 2.712992,12.8691899 C1.89887744,12.3189838 2.7747535,12.3298146 2.7747535,12.3298146 C3.6741619,12.3915417 4.1476784,13.2439365 4.1476784,13.2439365 C4.94704368,14.5999562 6.24503247,14.2078802 6.75460858,13.9804328 C6.83603578,13.4085651 7.06786011,13.0164891 7.32323429,12.7955402 C5.33468895,12.5713508 3.24281119,11.8099349 3.24281119,8.4101293 C3.24281119,7.44076153 3.59219232,6.65012841 4.16408982,6.02897609 C4.07277728,5.80369487 3.76440718,4.90094102 4.25265546,3.67977816 C4.25265546,3.67977816 5.00390625,3.44149994 6.71632695,4.58956771 C7.43038087,4.39190943 8.19639844,4.29443198 8.95802446,4.29117407 C9.7191081,4.29443198 10.4856506,4.39298385 11.2008242,4.59064213 C12.9099906,3.44149994 13.6623262,3.68085258 13.6623262,3.68085258 C14.1522191,4.90310719 13.843849,5.80476929 13.7519941,6.02897609 C14.3260786,6.65012841 14.6727303,7.44077886 14.6727303,8.4101293 C14.6727303,11.8185996 12.5775633,12.5691673 10.5819145,12.7890417 C10.904509,13.0641448 11.1899066,13.60352 11.1899066,14.4309953 C11.1899066,15.6169796 11.1778692,16.5733331 11.1778692,16.8657654 C11.1778692,17.1018775 11.3407936,17.3780549 11.7946094,17.2914083 C15.3518094,16.1162721 17.9160839,12.7912079 17.9160839,8.87261433 C17.9160839,3.97274772 13.9050856,0 8.95804196,0 Z" id="Shape"></path>
                    </g>
                </g>
            </g>
        </g>
    </g>
</svg>