<?xml version="1.0" encoding="UTF-8"?>
<svg width="19px" height="18px" viewBox="0 0 19 18" version="1.1" xmlns="http://www.w3.org/2000/svg" xmlns:xlink="http://www.w3.org/1999/xlink">
    <!-- Generator: Sketch 47.1 (45422) - http://www.bohemiancoding.com/sketch -->
    <title>logo-slack</title>
    <desc>Created with Sketch.</desc>
    <defs></defs>
    <g id="Ark" stroke="none" stroke-width="1" fill="none" fill-rule="evenodd">
        <g id="Desktop-HD-Copy-2" transform="translate(-1402.000000, -15.000000)" fill-rule="nonzero" fill="#FFFFFF">
            <g id="Group-2">
                <g id="icons-social" transform="translate(1325.000000, 15.000000)">
                    <g id="logo-slack" transform="translate(77.445887, 0.000000)">
                        <rect id="Rectangle-path" transform="translate(8.872727, 8.608696) rotate(-108.518296) translate(-8.872727, -8.608696) " x="7.71541502" y="7.43478261" width="2.31462451" height="2.34782609"></rect>
                        <g id="Group">
                            <path d="M16.9982775,6.44210526 C15.1925997,0.378947368 12.6086124,-1.04210526 6.6000638,0.757894737 C0.622647528,2.58947368 -0.77830941,5.21052632 0.996236045,11.3052632 C2.80191388,17.3684211 5.38590112,18.7894737 11.3944498,16.9894737 C17.4029984,15.1578947 18.8039553,12.5052632 16.9982775,6.44210526 Z M13.978437,10.3894737 L12.8576715,10.7684211 L13.2623923,11.9684211 C13.4180542,12.4421053 13.1689952,12.9789474 12.7020096,13.1368421 C12.6086124,13.1684211 12.4840829,13.2 12.3906858,13.2 C12.0170973,13.2 11.6746411,12.9473684 11.5501116,12.5684211 L11.1142584,11.3684211 L8.77933014,12.1578947 L9.18405104,13.3578947 C9.33971292,13.8315789 9.09065391,14.3684211 8.62366826,14.5263158 C8.53027113,14.5578947 8.40574163,14.5894737 8.3123445,14.5894737 C7.93875598,14.5894737 7.59629984,14.3368421 7.47177033,13.9578947 L7.06704944,12.7578947 L5.94628389,13.1368421 C5.85288676,13.1684211 5.72835726,13.2 5.63496013,13.2 C5.26137161,13.2 4.91891547,12.9473684 4.79438596,12.5684211 C4.63872408,12.0947368 4.88778309,11.5578947 5.35476874,11.4 L6.47553429,11.0210526 L5.72835726,8.74736842 L4.60759171,9.12631579 C4.51419458,9.15789474 4.38966507,9.18947368 4.29626794,9.18947368 C3.92267943,9.18947368 3.58022329,8.93684211 3.45569378,8.55789474 C3.3000319,8.08421053 3.54909091,7.54736842 4.01607656,7.38947368 L5.13684211,7.01052632 L4.73212121,5.81052632 C4.57645933,5.33684211 4.82551834,4.8 5.29250399,4.64210526 C5.75948963,4.48421053 6.28874003,4.73684211 6.44440191,5.21052632 L6.84912281,6.41052632 L9.18405104,5.62105263 L8.8415949,4.42105263 C8.68593301,3.94736842 8.93499203,3.41052632 9.40197767,3.25263158 C9.86896332,3.09473684 10.3982137,3.34736842 10.5538756,3.82105263 L10.9585965,5.02105263 L12.079362,4.64210526 C12.5463477,4.48421053 13.0755981,4.73684211 13.23126,5.21052632 C13.3869219,5.68421053 13.1378628,6.22105263 12.6708772,6.37894737 L11.5189793,6.75789474 L12.2661563,9.03157895 L13.3869219,8.65263158 C13.8539075,8.49473684 14.3831579,8.74736842 14.5388198,9.22105263 C14.6944817,9.69473684 14.4454226,10.2315789 13.978437,10.3894737 Z" id="Shape"></path>
                        </g>
                    </g>
                </g>
            </g>
        </g>
    </g>
</svg>