<?xml version="1.0" encoding="UTF-8"?>
<svg width="20px" height="17px" viewBox="0 0 20 17" version="1.1" xmlns="http://www.w3.org/2000/svg" xmlns:xlink="http://www.w3.org/1999/xlink">
    <!-- Generator: Sketch 47.1 (45422) - http://www.bohemiancoding.com/sketch -->
    <title>logo-twitter</title>
    <desc>Created with Sketch.</desc>
    <defs></defs>
    <g id="Ark" stroke="none" stroke-width="1" fill="none" fill-rule="evenodd">
        <g id="Desktop-HD-Copy-2" transform="translate(-1362.000000, -15.000000)" fill-rule="nonzero" fill="#FFFFFF">
            <g id="Group-2">
                <g id="icons-social" transform="translate(1325.000000, 15.000000)">
                    <g id="logo-twitter" transform="translate(37.367965, 0.857143)">
                        <path d="M6.07308594,15.8451877 C13.3605299,15.8451877 17.3457495,9.77452217 17.3457495,4.51025534 C17.3457495,4.33782702 17.3422568,4.16618059 17.334565,3.99530955 C18.1081512,3.43298066 18.7805193,2.73123914 19.3108451,1.93239877 C18.6009576,2.24968044 17.8370267,2.46326925 17.0356411,2.55957968 C17.8536155,2.0663772 18.4815954,1.28619164 18.7778625,0.356122516 C18.0123763,0.812432386 17.1646585,1.14408146 16.2620549,1.32313638 C15.5390777,0.548795516 14.5097895,0.0644741067 13.3700814,0.0644741067 C11.1821634,0.0644741067 9.4079307,1.84857266 9.4079307,4.04772938 C9.4079307,4.36034572 9.44268959,4.66442632 9.51066513,4.9561008 C6.21783689,4.78949762 3.2979993,3.20425559 1.34388087,0.793790606 C1.00362735,1.38252162 0.807431421,2.06639675 0.807431421,2.7961042 C0.807431421,4.17824139 1.50688607,5.39839512 2.57051851,6.11220395 C1.92050651,6.0920101 1.3098931,5.9125916 0.776197667,5.61395171 C0.775614464,5.63066611 0.775614464,5.64696154 0.775614464,5.66482533 C0.775614464,7.59416166 2.1412812,9.20500437 3.95413493,9.57002099 C3.62121681,9.66128166 3.27094517,9.71021552 2.90942418,9.71021552 C2.65452565,9.71021552 2.4061849,9.68498885 2.16480371,9.63837202 C2.66919644,11.2212618 4.13181741,12.3731297 5.86587396,12.4053179 C4.50986247,13.4740438 2.80166125,14.1105749 0.9451321,14.1105749 C0.625731325,14.1105749 0.310199129,14.0923072 8.42404155e-05,14.0554289 C1.75351608,15.1855339 3.83555035,15.8449356 6.07329978,15.8449356" id="Shape"></path>
                    </g>
                </g>
            </g>
        </g>
    </g>
</svg>