<?xml version="1.0" encoding="UTF-8"?>
<svg width="38px" height="24px" viewBox="0 0 38 24" version="1.1" xmlns="http://www.w3.org/2000/svg" xmlns:xlink="http://www.w3.org/1999/xlink">
    <!-- Generator: Sketch 47.1 (45422) - http://www.bohemiancoding.com/sketch -->
    <title>heptio-ark</title>
    <desc>Created with Sketch.</desc>
    <defs></defs>
    <g id="Ark" stroke="none" stroke-width="1" fill="none" fill-rule="evenodd">
        <g id="Desktop-HD-Copy-2" transform="translate(-20.000000, -12.000000)" fill-rule="nonzero" fill="#FFFFFF">
            <g id="Group-2">
                <g id="heptio-ark" transform="translate(20.000000, 12.000000)">
                    <g id="Group">
                        <path d="M37.8018405,23.7813861 C36.2725153,23.7813861 35.4705521,23.1421782 34.7711656,22.5766337 C34.1277301,22.0562376 33.5728834,21.6071287 32.4142331,21.6071287 C31.2555828,21.6071287 30.7123926,22.0562376 30.0736196,22.5742574 C29.3742331,23.139802 28.5839264,23.7790099 27.0429448,23.7790099 C25.5019632,23.7790099 24.7116564,23.139802 24.0239264,22.5742574 C23.3804908,22.0538614 22.8256442,21.6047525 21.6693252,21.6047525 C20.5130061,21.6047525 19.9558282,22.0538614 19.3123926,22.5742574 C18.6130061,23.139802 17.8226994,23.7790099 16.2933742,23.7790099 C14.7640491,23.7790099 13.9877301,23.1421782 13.2883436,22.5742574 C12.644908,22.0538614 12.0900613,21.6047525 10.9337423,21.6047525 C9.77742331,21.6047525 9.2202454,22.0538614 8.5791411,22.5742574 C7.8797546,23.139802 7.08944785,23.7790099 5.5601227,23.7790099 C4.03079755,23.7790099 3.22883436,23.139802 2.54110429,22.5742574 C1.89766871,22.0538614 1.34282209,21.6047525 0.184171779,21.6047525 L0.184171779,20.5164356 C1.71349693,20.5164356 2.51546012,21.1556436 3.20319018,21.7211881 C3.84662577,22.2415842 4.40147239,22.6906931 5.5601227,22.6906931 C6.71877301,22.6906931 7.27361963,22.2415842 7.91472393,21.7211881 C8.61411043,21.1556436 9.40441718,20.5164356 10.9337423,20.5164356 C12.4630675,20.5164356 13.2650307,21.1556436 13.9527607,21.7211881 C14.5961963,22.2415842 15.1510429,22.6906931 16.307362,22.6906931 C17.463681,22.6906931 18.0208589,22.2415842 18.6642945,21.7211881 C19.363681,21.1556436 20.1539877,20.5164356 21.6949693,20.5164356 C23.2359509,20.5164356 24.0262577,21.1556436 24.7139877,21.7211881 C25.3574233,22.2415842 25.9122699,22.6906931 27.0709202,22.6906931 C28.2295706,22.6906931 28.7844172,22.2415842 29.4278528,21.7211881 C30.1272393,21.1556436 30.917546,20.5164356 32.4585276,20.5164356 C33.9995092,20.5164356 34.789816,21.1556436 35.4892025,21.7211881 C36.132638,22.2415842 36.6874847,22.6906931 37.846135,22.6906931 L37.8018405,23.7813861 Z" id="Shape"></path>
                        <path d="M37.8018405,18.4942574 C36.3051534,18.4942574 35.5288344,17.8645545 34.8434356,17.3061386 C34.1580368,16.7477228 33.6195092,16.3152475 32.4258896,16.3152475 C31.2322699,16.3152475 30.6657669,16.7738614 30.0083436,17.3061386 C29.3509202,17.8384158 28.5442945,18.4942574 27.0499387,18.4942574 C25.5555828,18.4942574 24.7769325,17.8645545 24.0915337,17.3061386 C23.406135,16.7477228 22.8676074,16.3152475 21.676319,16.3152475 C20.4850307,16.3152475 19.9161963,16.7738614 19.2611043,17.3061386 C18.6060123,17.8384158 17.7970552,18.4942574 16.3026994,18.4942574 C14.8083436,18.4942574 14.0296933,17.8645545 13.3442945,17.3061386 C12.6588957,16.7477228 12.1203681,16.3152475 10.9290798,16.3152475 C9.73779141,16.3152475 9.17128834,16.7738614 8.51386503,17.3061386 C7.85644172,17.8384158 7.05214724,18.4942574 5.55546012,18.4942574 C4.05877301,18.4942574 3.28245399,17.8645545 2.59705521,17.3061386 C1.91165644,16.7477228 1.37312883,16.3152475 0.181840491,16.3152475 L0.181840491,15.4265347 C1.67852761,15.4265347 2.45484663,16.0562376 3.1402454,16.6146535 C3.82564417,17.1730693 4.36417178,17.6055446 5.55546012,17.6055446 C6.74674847,17.6055446 7.31325153,17.1469307 7.97067485,16.6146535 C8.62809816,16.0823762 9.43239264,15.4265347 10.9290798,15.4265347 C12.4257669,15.4265347 13.2020859,16.0562376 13.8874847,16.6146535 C14.5728834,17.1730693 15.111411,17.6055446 16.3026994,17.6055446 C17.4939877,17.6055446 18.0628221,17.1469307 18.7179141,16.6146535 C19.3730061,16.0823762 20.1819632,15.4265347 21.676319,15.4265347 C23.1706748,15.4265347 23.9493252,16.0562376 24.6347239,16.6146535 C25.3201227,17.1730693 25.8586503,17.6055446 27.0499387,17.6055446 C28.241227,17.6055446 28.8100613,17.1469307 29.4674847,16.6146535 C30.124908,16.0823762 30.9315337,15.4265347 32.4258896,15.4265347 C33.9202454,15.4265347 34.6988957,16.0562376 35.3842945,16.6146535 C36.0696933,17.1730693 36.6082209,17.6055446 37.8018405,17.6055446 L37.8018405,18.4942574 Z" id="Shape"></path>
                        <path d="M37.8018405,13.2047525 C36.3401227,13.2047525 35.5754601,12.5869307 34.9040491,12.0427723 C34.232638,11.4986139 33.6521472,11.030495 32.4282209,11.030495 C31.2042945,11.030495 30.5958282,11.5223762 29.9523926,12.0427723 C29.3089571,12.5631683 28.516319,13.2047525 27.0546012,13.2047525 C25.5928834,13.2047525 24.8305521,12.5869307 24.1568098,12.0427723 C23.4830675,11.4986139 22.904908,11.030495 21.6809816,11.030495 C20.4570552,11.030495 19.848589,11.5223762 19.2051534,12.0427723 C18.5617178,12.5631683 17.7690798,13.2047525 16.307362,13.2047525 C14.8456442,13.2047525 14.0833129,12.5869307 13.4095706,12.0427723 C12.7358282,11.4986139 12.1576687,11.030495 10.9337423,11.030495 C9.70981595,11.030495 9.10134969,11.5223762 8.45791411,12.0427723 C7.81447853,12.5631683 7.02184049,13.2047525 5.5601227,13.2047525 C4.09840491,13.2047525 3.33607362,12.5869307 2.66233129,12.0427723 C1.98858896,11.4986139 1.41042945,11.030495 0.186503067,11.030495 L0.186503067,10.3390099 C1.64822086,10.3390099 2.41055215,10.9568317 3.08429448,11.5009901 C3.75803681,12.0451485 4.33619632,12.5132673 5.5601227,12.5132673 C6.78404908,12.5132673 7.39251534,12.0213861 8.03595092,11.5009901 C8.6793865,10.9805941 9.47202454,10.3390099 10.9337423,10.3390099 C12.3954601,10.3390099 13.1577914,10.9568317 13.8315337,11.5009901 C14.5052761,12.0451485 15.0834356,12.5132673 16.307362,12.5132673 C17.5312883,12.5132673 18.1397546,12.0213861 18.7831902,11.5009901 C19.4266258,10.9805941 20.2192638,10.3390099 21.6809816,10.3390099 C23.1426994,10.3390099 23.9050307,10.9568317 24.578773,11.5009901 C25.2525153,12.0451485 25.8306748,12.5132673 27.0546012,12.5132673 C28.2785276,12.5132673 28.8869939,12.0213861 29.5304294,11.5009901 C30.173865,10.9805941 30.9665031,10.3390099 32.4282209,10.3390099 C33.8899387,10.3390099 34.6546012,10.9568317 35.3260123,11.5009901 C35.9974233,12.0451485 36.5779141,12.5132673 37.8018405,12.5132673 L37.8018405,13.2047525 Z" id="Shape"></path>
                        <path d="M37.8018405,7.91762376 C36.3727607,7.91762376 35.6570552,7.33782178 34.9623313,6.7770297 C34.304908,6.24475248 33.6847853,5.74336634 32.4258896,5.74336634 C31.1669939,5.74336634 30.5468712,6.24475248 29.8894479,6.7770297 C29.1900613,7.33782178 28.4906748,7.91762376 27.0499387,7.91762376 C25.6092025,7.91762376 24.9051534,7.33782178 24.2127607,6.7770297 C23.5553374,6.24475248 22.9352147,5.74336634 21.676319,5.74336634 C20.4174233,5.74336634 19.7973006,6.24475248 19.1398773,6.7770297 C18.4404908,7.33782178 17.7411043,7.91762376 16.3026994,7.91762376 C14.8642945,7.91762376 14.1579141,7.33782178 13.4655215,6.7770297 C12.8080982,6.24475248 12.1879755,5.74336634 10.9290798,5.74336634 C9.67018405,5.74336634 9.04539877,6.24475248 8.39263804,6.7770297 C7.69325153,7.33782178 6.99386503,7.91762376 5.55546012,7.91762376 C4.11705521,7.91762376 3.41067485,7.33782178 2.71828221,6.7770297 C2.0608589,6.24475248 1.4407362,5.74336634 0.181840491,5.74336634 L0.181840491,5.24910891 C1.61092025,5.24910891 2.32662577,5.82891089 3.0190184,6.38970297 C3.67644172,6.9219802 4.29656442,7.42336634 5.55546012,7.42336634 C6.81435583,7.42336634 7.43447853,6.9219802 8.09190184,6.38970297 C8.79128834,5.82891089 9.49067485,5.24910891 10.9290798,5.24910891 C12.3674847,5.24910891 13.073865,5.82891089 13.7662577,6.38970297 C14.423681,6.9219802 15.0438037,7.42336634 16.3026994,7.42336634 C17.5615951,7.42336634 18.1840491,6.9219802 18.8368098,6.38970297 C19.5361963,5.82891089 20.2355828,5.24910891 21.6739877,5.24910891 C23.1123926,5.24910891 23.818773,5.82891089 24.5111656,6.38970297 C25.168589,6.9219802 25.7887117,7.42336634 27.0476074,7.42336634 C28.3065031,7.42336634 28.9266258,6.9219802 29.5840491,6.38970297 C30.2834356,5.82891089 30.9828221,5.24910891 32.4235583,5.24910891 C33.8642945,5.24910891 34.5683436,5.82891089 35.2630675,6.38970297 C35.9204908,6.9219802 36.5406135,7.42336634 37.7995092,7.42336634 L37.8018405,7.91762376 Z" id="Shape"></path>
                        <path d="M37.8018405,2.63049505 C36.4030675,2.63049505 35.703681,2.06257426 35.0229448,1.51128713 C34.3422086,0.96 33.7197546,0.456237624 32.4258896,0.456237624 C31.1320245,0.456237624 30.5002454,0.96950495 29.8288344,1.51128713 C29.1574233,2.05306931 28.4417178,2.63049505 27.0429448,2.63049505 C25.6441718,2.63049505 24.9447853,2.06257426 24.2640491,1.51128713 C23.5833129,0.96 22.9608589,0.456237624 21.6669939,0.456237624 C20.3731288,0.456237624 19.7413497,0.96950495 19.0699387,1.51128713 C18.3985276,2.05306931 17.6874847,2.63049505 16.2910429,2.63049505 C14.8946012,2.63049505 14.1928834,2.06257426 13.5121472,1.51128713 C12.831411,0.96 12.2089571,0.456237624 10.915092,0.456237624 C9.62122699,0.456237624 8.98944785,0.96950495 8.31803681,1.51128713 C7.64662577,2.05306931 6.93558282,2.63049505 5.54147239,2.63049505 C4.14736196,2.63049505 3.44331288,2.06257426 2.76257669,1.51128713 C2.08184049,0.96 1.4593865,0.456237624 0.165521472,0.456237624 L0.165521472,0.159207921 C1.56429448,0.159207921 2.26368098,0.727128713 2.94441718,1.27841584 C3.62515337,1.82970297 4.24760736,2.33346535 5.54147239,2.33346535 C6.83533742,2.33346535 7.47877301,1.82019802 8.1595092,1.27841584 C8.8402454,0.736633663 9.54196319,0.159207921 10.9360736,0.159207921 C12.330184,0.159207921 13.0342331,0.727128713 13.712638,1.27841584 C14.3910429,1.82970297 15.0158282,2.33346535 16.3096933,2.33346535 C17.6035583,2.33346535 18.2353374,1.82019802 18.9067485,1.27841584 C19.5781595,0.736633663 20.2822086,0.159207921 21.6809816,0.159207921 C23.0797546,0.159207921 23.7791411,0.727128713 24.4598773,1.27841584 C25.1406135,1.82970297 25.7630675,2.33346535 27.0569325,2.33346535 C28.3507975,2.33346535 28.9825767,1.82019802 29.6539877,1.27841584 C30.3253988,0.736633663 31.0364417,0.159207921 32.4328834,0.159207921 C33.8293252,0.159207921 34.5310429,0.727128713 35.2117791,1.27841584 C35.8925153,1.82970297 36.5149693,2.33346535 37.8088344,2.33346535 L37.8018405,2.63049505 Z" id="Shape"></path>
                    </g>
                </g>
            </g>
        </g>
    </g>
</svg>