<?xml version="1.0" encoding="UTF-8"?>
<svg width="1440px" height="500px" viewBox="0 0 1440 500" version="1.1" xmlns="http://www.w3.org/2000/svg" xmlns:xlink="http://www.w3.org/1999/xlink">
    <!-- Generator: Sketch 53.2 (72643) - https://sketchapp.com -->
    <title>Hero CTA</title>
    <desc>Created with Sketch.</desc>
    <defs>
        <rect id="path-1" x="0" y="0" width="1440" height="500"></rect>
    </defs>
    <g id="Designs" stroke="none" stroke-width="1" fill="none" fill-rule="evenodd">
        <g id="Home-Page-Velloro-" transform="translate(0.000000, -80.000000)">
            <g id="Hero-CTA" transform="translate(0.000000, 80.000000)">
                <g id="COLOR/bluegradient">
                    <g id="Bitmap">
                        <mask id="mask-2" fill="white">
                            <use xlink:href="#path-1"></use>
                        </mask>
                        <use id="Mask" fill="#0091DA" xlink:href="#path-1"></use>
                        <g id="Group-3" mask="url(#mask-2)">
                            <g transform="translate(723.000000, -237.000000)">
                                <polygon id="Path-2" fill="#00C1D5" points="366.742188 236.671875 807.101562 732.265625 807.101562 774.515625 263.390625 760.546875 263.390625 668.695312 148.539062 603.117188"></polygon>
                                <path d="M15.4276242,556.478966 L142.75339,575.835109 L240.770152,399.601341 L321.734718,156.497466 L394.947759,60.8949495 L394.947759,120.719072 L147.505261,597.739183 L10.7685861,562.564398 L15.4276242,556.478966 Z M690.103332,209.943058 L690.103332,570.840818 L419.560012,570.840818 L408.153201,570.840818 L408.153201,547.610544 L672.230148,547.610544 L672.230148,537.60455 L653.997237,537.60455 C641.151521,520.636728 624.714342,493.059302 606.208735,458.778324 L690.103332,209.943058 Z M653.640412,599.663189 C653.640412,603.247123 650.640757,606.154897 646.939056,606.154897 L620.136532,606.154897 C616.434831,606.154897 613.435176,603.247123 613.435176,599.663189 L613.435176,594.471564 C613.435176,590.884728 616.434831,587.979856 620.136532,587.979856 L646.939056,587.979856 C650.640757,587.979856 653.640412,590.884728 653.640412,594.471564 L653.640412,599.663189 Z M572.287109,599.663189 C572.287109,603.247123 569.287454,606.154897 565.588654,606.154897 L538.783229,606.154897 C535.081528,606.154897 532.081873,603.247123 532.081873,599.663189 L532.081873,594.471564 C532.081873,590.884728 535.081528,587.979856 538.783229,587.979856 L565.588654,587.979856 C569.287454,587.979856 572.287109,590.884728 572.287109,594.471564 L572.287109,599.663189 Z M490.933806,599.663189 C490.933806,603.247123 487.934151,606.154897 484.235351,606.154897 L457.429927,606.154897 C453.728225,606.154897 450.72857,603.247123 450.72857,599.663189 L450.72857,594.471564 C450.72857,590.884728 453.728225,587.979856 457.429927,587.979856 L484.235351,587.979856 C487.934151,587.979856 490.933806,590.884728 490.933806,594.471564 L490.933806,599.663189 Z M343.759261,599.239502 L360.228352,632.330671 C311.409988,627.725244 262.614832,621.930009 213.83128,614.799868 L151.74075,598.827422 L157.455759,587.814444 L343.759261,599.239502 Z M589.173946,678.9102 C585.028389,678.9102 581.669007,675.654189 581.669007,671.640764 C581.669007,667.627339 585.028389,664.371328 589.173946,664.371328 C593.316603,664.371328 596.675984,667.627339 596.675984,671.640764 C596.675984,675.654189 593.316603,678.9102 589.173946,678.9102 L589.173946,678.9102 Z M548.252158,678.9102 C544.109502,678.9102 540.750121,675.654189 540.750121,671.640764 C540.750121,667.627339 544.109502,664.371328 548.252158,664.371328 C552.397716,664.371328 555.757097,667.627339 555.757097,671.640764 C555.757097,675.654189 552.397716,678.9102 548.252158,678.9102 L548.252158,678.9102 Z M509.616375,677.351842 C505.470817,677.351842 502.111436,674.098733 502.111436,670.082406 C502.111436,666.068981 505.470817,662.81297 509.616375,662.81297 C513.761932,662.81297 517.121313,666.068981 517.121313,670.082406 C517.121313,674.098733 513.761932,677.351842 509.616375,677.351842 L509.616375,677.351842 Z M220.155504,701 L817.652476,701 L881.965188,634.527463 C822.502982,639.748108 762.950844,643.053453 703.398706,644.446398 C698.997859,644.620517 694.59411,644.707576 690.103332,644.794635 C596.150899,646.707033 502.195566,644.011103 408.153201,636.616882 C403.752354,636.355705 399.351507,636.007468 394.947759,635.572173 C385.464324,634.794444 375.98089,633.787461 366.500357,632.913968 L346.213524,592.15289 L367.605645,182.681947 L394.947759,129.970554 L394.947759,570.840818 L383.001358,570.840818 L377.074575,581.543285 L394.947759,581.543285 L394.947759,622.434952 C399.351507,622.783188 403.752354,623.131425 408.153201,623.476759 L408.153201,581.543285 L408.153201,581.279206 L419.560012,581.279206 L419.560012,581.543285 L419.560012,624.347351 C490.608892,629.655055 561.48081,632.353887 631.9901,632.353887 C651.299289,632.353887 670.70131,632.176867 690.103332,631.744473 C694.59411,631.657414 698.997859,631.567453 703.398706,631.396237 L703.398706,581.543285 L727.291506,581.543285 L721.364723,570.840818 L703.398706,570.840818 L703.398706,557.665872 L882,557.665872 L882,547.627956 L868.695922,547.627956 C847.460456,506.82625 715.922409,252.445318 703.398706,186.776627 L703.398706,174.794391 L690.103332,174.794391 L690.103332,196.370541 L603.426657,453.557679 C536.418898,328.79326 445.158612,122.155547 408.153201,19.4025749 L408.153201,0 L394.947759,0 L394.947759,53.9244163 L6.3068174,561.41812 L3.2984597,560.643294 L0,572.689373 L142.970967,609.468948 L220.155504,701 Z" id="Fill-1" fill="#1D428A"></path>
                            </g>
                        </g>
                    </g>
                </g>
            </g>
        </g>
    </g>
</svg>