<?xml version="1.0" encoding="UTF-8"?>
<svg version="1.1" xmlns="http://www.w3.org/2000/svg" width="1280" height="370">
<path d="M0 0 C0.66 0 1.32 0 2 0 C3.52352827 2.64078234 5.047052 5.28156731 6.57055664 7.92236328 C7.91732423 10.25671642 9.26415607 12.59103235 10.61108398 14.92529297 C14.02377298 20.83978489 17.43539406 26.75488441 20.84375 32.671875 C26.84647607 43.08980336 32.86642887 53.49673257 38.9375 63.875 C44.35958699 73.14563931 49.70324012 82.45936699 55.02023315 91.79046631 C59.63484029 99.88707843 64.29084886 107.95788801 69 116 C74.4035646 125.22800529 79.72652361 134.4999467 85.02050781 143.79101562 C89.63502804 151.88744133 94.29095255 159.95806509 99 168 C104.4035646 177.22800529 109.72652361 186.4999467 115.02050781 195.79101562 C119.63502852 203.88744218 124.29103794 211.95801457 129 220 C134.0318979 228.5951729 139.00389124 237.22312222 143.9375 245.875 C150.96603507 258.20025196 158.04240434 270.49722067 165.14111328 282.78222656 C168.88041838 289.25504521 172.61490639 295.73064579 176.34887695 302.20654297 C179.26850423 307.26928046 182.19027583 312.33074051 185.12011719 317.38757324 C186.49918031 319.76812173 187.87695785 322.14941306 189.25463867 324.53076172 C190.22384658 326.2048265 191.19490565 327.87781912 192.16601562 329.55078125 C192.75576172 330.57042969 193.34550781 331.59007812 193.953125 332.640625 C194.47036133 333.53297852 194.98759766 334.42533203 195.52050781 335.34472656 C197.10170245 338.18252736 198.54718963 341.09437926 200 344 C78.56 344 -42.88 344 -168 344 C-168 343.67 -168 343.34 -168 343 C-167.13957753 342.84760864 -166.27915506 342.69521729 -165.39265919 342.53820801 C-144.22175939 338.78857199 -123.05088851 335.03877274 -101.8800478 331.2888031 C-91.64099273 329.47517346 -81.40192872 327.66159431 -71.1628418 325.84814453 C-62.21345846 324.26311466 -53.2640938 322.67797936 -44.31474942 321.09272957 C-39.59889207 320.2573856 -34.88302685 319.42208614 -30.16713905 318.58691406 C-29.27468874 318.42885851 -28.38223843 318.27080296 -27.46274418 318.10795784 C-25.67658913 317.79162525 -23.89043204 317.47530416 -22.1042729 317.15899467 C-17.73705542 316.38551834 -13.36992965 315.61153074 -9.00299549 314.8364563 C-7.27125651 314.52913799 -5.53951459 314.22183622 -3.80776978 313.91455078 C-2.94632416 313.76169176 -2.08487854 313.60883274 -1.19732851 313.45134163 C4.66436028 312.41201841 10.5271207 311.37889984 16.39038843 310.34852314 C20.59028875 309.61002425 24.7897582 308.86909373 28.98916972 308.12782097 C31.01317918 307.77117268 33.03738494 307.41563643 35.06179178 307.06125069 C37.86212069 306.57092451 40.66175244 306.07678957 43.46125793 305.58178711 C44.29964679 305.43598898 45.13803564 305.29019085 46.00183022 305.13997459 C50.12108604 304.4632298 50.12108604 304.4632298 54 303 C52.85724609 301.67548828 52.85724609 301.67548828 51.69140625 300.32421875 C46.90280707 294.76246032 42.12556687 289.19890283 37.5 283.5 C34.06792143 279.27207712 30.55453161 275.12468204 27 271 C22.70027287 266.01059233 18.49514591 260.95778844 14.34375 255.84375 C11.60697862 252.52313406 8.80893615 249.25956291 6 246 C1.67827137 240.98408311 -2.55479196 235.90824701 -6.73046875 230.76953125 C-11.08505794 225.45558334 -15.55078435 220.23473234 -20 215 C-25.9600827 207.98765442 -31.87758795 200.95039195 -37.6875 193.8125 C-39.79984984 191.24342587 -41.9351353 188.69746538 -44.08935547 186.16357422 C-45.02533877 185.05976836 -45.95671519 183.9520385 -46.88330078 182.84033203 C-49.11101965 180.17419176 -51.36628532 177.59323519 -53.8046875 175.1171875 C-54.65289062 174.21226562 -55.50109375 173.30734375 -56.375 172.375 C-57.14585937 171.59898437 -57.91671875 170.82296875 -58.7109375 170.0234375 C-61.76739157 162.85466342 -55.69960981 152.05672453 -53.10546875 145.0390625 C-52.53584412 143.48039711 -52.53584412 143.48039711 -51.95471191 141.89024353 C-50.70292216 138.46703611 -49.44514018 135.04606187 -48.1875 131.625 C-46.60724088 127.30863571 -45.02926594 122.99143804 -43.45176125 118.67406654 C-42.74415387 116.73791006 -42.0359935 114.80195641 -41.32780457 112.86601257 C-37.96144961 103.65894006 -34.62775476 94.44042988 -31.3125 85.21484375 C-30.96223157 84.24031533 -30.96223157 84.24031533 -30.60488701 83.24609947 C-29.66498081 80.6309733 -28.72520585 78.01580001 -27.78555965 75.40058041 C-18.72697793 50.18966711 -9.51902556 25.04114205 0 0 Z " fill="#0089D6" transform="translate(278,26)"/>
<path d="M0 0 C-2.33839593 7.90307496 -5.7747162 15.19369396 -9.32012939 22.60681152 C-10.76602155 25.63010903 -12.20056613 28.65874791 -13.63595581 31.68704224 C-14.36886887 33.23295467 -15.10237015 34.77858836 -15.8364563 36.32394409 C-19.13998106 43.28062152 -22.39058925 50.26089524 -25.625 57.25 C-29.94275293 66.56983396 -34.27630151 75.88206699 -38.625 85.1875 C-42.6139703 93.7235448 -46.58975802 102.2655427 -50.546875 110.81640625 C-51.13603195 112.08945869 -51.13603195 112.08945869 -51.73709106 113.38822937 C-53.35762206 116.89014279 -54.97808151 120.39208929 -56.59832764 123.89413452 C-62.42616137 136.48728515 -68.31168398 149.05170859 -74.24124146 161.597229 C-79.34399887 172.40071212 -84.31261619 183.25952607 -89.22619629 194.15014648 C-94.89574697 206.70280724 -100.79104186 219.14196136 -106.72769165 231.57012939 C-112.10312394 242.82892149 -117.3767562 254.12428835 -122.5 265.5 C-128.24740999 278.25888172 -134.17661101 290.92563297 -140.1875 303.5625 C-140.6 304.4302002 -141.0125 305.29790039 -141.4375 306.19189453 C-142.61708336 308.67157156 -143.79828512 311.15046795 -144.98046875 313.62890625 C-145.32776535 314.357715 -145.67506195 315.08652374 -146.03288269 315.8374176 C-146.36516373 316.53245895 -146.69744476 317.22750031 -147.03979492 317.94360352 C-147.32320236 318.53689957 -147.6066098 319.13019562 -147.89860535 319.74147034 C-149.57253597 323.17404735 -151.29209903 326.58419805 -153 330 C-189.3 330 -225.6 330 -263 330 C-262.03050746 325.15253729 -260.46164558 322.03798749 -257.9375 317.9375 C-257.02275989 316.41785658 -256.11015517 314.89692655 -255.19921875 313.375 C-254.43810791 312.10462891 -254.43810791 312.10462891 -253.66162109 310.80859375 C-250.80819195 305.98551869 -248.04514921 301.11068758 -245.27493286 296.23953247 C-239.9031265 286.79484604 -234.49087271 277.37613959 -229 268 C-223.96804982 259.40485795 -218.99610847 250.77687727 -214.0625 242.125 C-207.03396493 229.79974804 -199.95759566 217.50277933 -192.85888672 205.21777344 C-189.73675395 199.81329355 -186.61858796 194.40652588 -183.5 189 C-182.25001878 186.8333225 -181.00001879 184.66665583 -179.75 182.5 C-179.13125 181.4275 -178.5125 180.355 -177.875 179.25 C-176 176 -174.125 172.75 -172.25 169.5 C-171.6305249 168.4260498 -171.0110498 167.35209961 -170.37280273 166.24560547 C-169.13080408 164.09319638 -167.88813534 161.9411738 -166.64477539 159.78955078 C-163.73639605 154.75477462 -160.83452627 149.71660822 -157.95724487 144.66400146 C-156.94192342 142.88180857 -155.92441725 141.10088088 -154.90625 139.3203125 C-153.63236937 137.0910214 -152.36256089 134.85939631 -151.09765625 132.625 C-146.13321547 123.95377678 -141.21081723 116.52921013 -133.4375 110.1875 C-132.53004028 109.428927 -132.53004028 109.428927 -131.60424805 108.6550293 C-130.35384104 107.6101241 -129.10066448 106.56852414 -127.84472656 105.53027344 C-125.52503198 103.6059953 -123.23162025 101.65197117 -120.93798828 99.69677734 C-116.5200491 95.93442902 -112.06553613 92.2228627 -107.5625 88.5625 C-102.69870975 84.60491812 -97.94118769 80.53457554 -93.19165039 76.44165039 C-88.8019965 72.66665609 -84.33885229 68.99271539 -79.84375 65.34375 C-76.52313514 62.60697951 -73.25953218 59.8089705 -70 57 C-65.01059233 52.70027287 -59.95778844 48.49514591 -54.84375 44.34375 C-51.52313514 41.60697951 -48.25953218 38.8089705 -45 36 C-40.01059233 31.70027287 -34.95778844 27.49514591 -29.84375 23.34375 C-26.5231222 20.60696885 -23.25990147 17.80855762 -20 15 C-15.60603983 11.22239808 -11.20349938 7.45736336 -6.75 3.75 C-5.44289063 2.65945312 -5.44289063 2.65945312 -4.109375 1.546875 C-2 0 -2 0 0 0 Z " fill="#0089D6" transform="translate(263,0)"/>
<path d="M0 0 C9.24 0 18.48 0 28 0 C42.16666667 36.83333333 56.33333333 73.66666667 70.5 110.5 C70.91240936 111.57226334 71.32481873 112.64452667 71.74972534 113.74928284 C72.58397693 115.918339 73.41822578 118.08739621 74.25247192 120.25645447 C76.32173371 125.63657043 78.39104126 131.01666878 80.46044922 136.39672852 C84.37837305 146.58271941 88.2957975 156.76890168 92.21173096 166.95565796 C94.06855625 171.78585206 95.92562577 176.61595224 97.78271484 181.44604492 C98.67085819 183.75621918 99.5588809 186.06643982 100.44677734 188.37670898 C101.67515359 191.57287015 102.90393936 194.7688736 104.1328125 197.96484375 C104.49641876 198.91125229 104.86002502 199.85766083 105.23464966 200.83274841 C105.73942337 202.14518272 105.73942337 202.14518272 106.25439453 203.48413086 C106.56056702 204.28245331 106.8667395 205.08077576 107.18218994 205.90328979 C107.84127007 207.59304649 108.5359657 209.26888773 109.24169922 210.93969727 C110 213 110 213 110 216 C100.64087671 216.99263429 91.39605802 217.10731538 82 217 C78.86813218 210.18664388 76.11264753 203.26344822 73.453125 196.25390625 C73.03705994 195.16158188 72.62099487 194.06925751 72.19232178 192.9438324 C71.32046638 190.65257239 70.44990026 188.36082142 69.58056641 186.06860352 C68.24424147 182.547326 66.90164526 179.02848223 65.55859375 175.50976562 C64.71055938 173.27878953 63.86288998 171.04767466 63.015625 168.81640625 C62.41104462 167.23370689 62.41104462 167.23370689 61.79425049 165.61903381 C61.42676697 164.6471965 61.05928345 163.67535919 60.68066406 162.67407227 C60.35519592 161.8174147 60.02972778 160.96075714 59.69439697 160.07814026 C59 158 59 158 59 156 C14.45 156.495 14.45 156.495 -31 157 C-37.12216872 174.49969376 -37.12216872 174.49969376 -43.2355957 192.00244141 C-44.00700857 194.20225915 -44.77871719 196.40197322 -45.55078125 198.6015625 C-45.94567749 199.73682373 -46.34057373 200.87208496 -46.74743652 202.04174805 C-48.56315421 207.20364726 -50.36323232 212.19850137 -53 217 C-62.39605802 217.10731538 -71.64087671 216.99263429 -81 216 C-80.35622619 210.09822674 -78.21723426 204.91039472 -76.08203125 199.421875 C-75.67725555 198.36757797 -75.27247986 197.31328094 -74.85543823 196.22703552 C-73.9753819 193.93665061 -73.09275103 191.64725365 -72.20785522 189.35873413 C-70.54847003 185.06715313 -68.89838453 180.77203514 -67.2489233 176.47663212 C-66.88709627 175.53441634 -66.88709627 175.53441634 -66.51795959 174.57316589 C-66.15348567 173.62400834 -66.15348567 173.62400834 -65.78164864 172.65567589 C-65.03263713 170.70593041 -64.2828816 168.75647246 -63.53294373 166.80708313 C-58.67376631 154.17295022 -53.87124725 141.51767363 -49.07763672 128.85852051 C-46.76945624 122.76316474 -44.45896278 116.668686 -42.1484375 110.57421875 C-41.48409698 108.82173325 -41.48409698 108.82173325 -40.80633545 107.03384399 C-36.19672902 94.87663197 -31.56806021 82.72671561 -26.93579102 70.578125 C-23.23871635 60.88127041 -19.54796771 51.18203832 -15.86328125 41.48046875 C-15.20906944 39.7580748 -15.20906944 39.7580748 -14.54164124 38.00088501 C-12.39928476 32.36020309 -10.25750997 26.71930108 -8.11645508 21.078125 C-7.34067037 19.03515138 -6.56487346 16.9921824 -5.7890625 14.94921875 C-5.25742241 13.54762764 -5.25742241 13.54762764 -4.71504211 12.11772156 C-4.22115242 10.81747795 -4.22115242 10.81747795 -3.71728516 9.4909668 C-3.4324527 8.74050583 -3.14762024 7.99004486 -2.85415649 7.21684265 C-1.92406304 4.80291633 -0.96075503 2.40188757 0 0 Z M13 30 C12.80913818 30.81380127 12.61827637 31.62760254 12.42163086 32.46606445 C9.64036083 43.61468247 5.7664145 54.26827052 1.74554443 65.0229187 C0.54301124 68.2396314 -0.6512887 71.45929197 -1.84326172 74.67993164 C-3.05533716 77.9548504 -4.26777 81.22962855 -5.48260498 84.50352478 C-8.95179964 93.85325416 -12.3827117 103.21641888 -15.77615356 112.59390259 C-16.61158187 114.9004536 -17.4511293 117.20547833 -18.29077148 119.51049805 C-18.79049605 120.89100681 -19.28994439 122.27161561 -19.7890625 123.65234375 C-20.21912598 124.83820068 -20.64918945 126.02405762 -21.09228516 127.24584961 C-22.10433944 129.83326941 -22.10433944 129.83326941 -22 132 C1.76 132 25.52 132 50 132 C47.60098838 123.9367497 47.60098838 123.9367497 44.87451172 116.02905273 C44.48335175 114.96931747 44.09219177 113.90958221 43.68917847 112.81773376 C43.27354645 111.70096756 42.85791443 110.58420135 42.4296875 109.43359375 C41.98916046 108.2418605 41.54863342 107.05012726 41.09475708 105.82228088 C39.92657957 102.66322954 38.75591731 99.50512457 37.58380127 96.34753418 C32.01555522 81.34256631 26.45551899 66.33438012 21.0078125 51.28515625 C20.64565643 50.29019638 20.28350037 49.29523651 19.91036987 48.27012634 C17.73438263 42.2343591 15.77443312 36.16585826 14 30 C13.67 30 13.34 30 13 30 Z " fill="#0089D6" transform="translate(603,114)"/>
<path d="M0 0 C0.95648437 0.43570313 1.91296875 0.87140625 2.8984375 1.3203125 C18.26101568 9.02264622 27.62908264 21.88724792 33 38 C33 53.18 33 68.36 33 84 C-1.65 84 -36.3 84 -72 84 C-69.20025321 99.86523184 -66.39332149 115.64701691 -53.3125 126.3125 C-39.74850661 135.65599447 -23.53776973 137.01655981 -7.62109375 134.38671875 C2.82727687 132.22823828 13.76316973 127.6776227 22.328125 121.25390625 C24 120 24 120 26 120 C26.29160411 123.87339979 26.46832697 127.7439852 26.625 131.625 C26.70878906 132.71941406 26.79257813 133.81382812 26.87890625 134.94140625 C26.97834051 138.22273675 26.9153549 140.84294237 26 144 C23.06887315 146.9670182 19.83413113 148.44756757 16 150 C15.26104492 150.32242676 14.52208984 150.64485352 13.76074219 150.97705078 C11.7151802 151.81834728 9.65943753 152.54769552 7.5625 153.25 C6.88896484 153.49234375 6.21542969 153.7346875 5.52148438 153.984375 C-14.68021668 160.96486889 -39.72434698 160.97257312 -59.35546875 152.5625 C-75.61282004 144.63394415 -86.93690648 131.28409487 -93.05078125 114.32739258 C-102.1521481 87.03287914 -99.78969792 57.52586056 -87.44140625 31.74609375 C-78.99251348 16.20580418 -66.08232745 5.07031753 -49.57421875 -1.24609375 C-34.10254738 -5.77725092 -14.90069483 -6.91357887 0 0 Z M-54 28 C-54.60328125 28.52464844 -55.2065625 29.04929687 -55.828125 29.58984375 C-63.81798679 36.97178127 -68.47361251 46.49320026 -71 57 C-71 58.65 -71 60.3 -71 62 C-43.94 62 -16.88 62 11 62 C9.14566102 48.09245764 7.17986558 34.61807371 -4.06640625 25.28515625 C-19.38773547 14.38702816 -39.92885694 15.0806983 -54 28 Z " fill="#0089D6" transform="translate(1247,176)"/>
<path d="M0 0 C8.58 0 17.16 0 26 0 C26.0093457 2.94550781 26.01869141 5.89101562 26.02832031 8.92578125 C26.06225177 18.71269479 26.11788957 28.49940105 26.18390274 38.28614807 C26.22322971 44.21356228 26.25549029 50.14083119 26.27099609 56.06835938 C26.28626049 61.80035372 26.32087764 67.53194824 26.36830902 73.26376343 C26.38302259 75.43871565 26.39103518 77.61372498 26.39188385 79.78872681 C26.37057493 104.36637986 26.37057493 104.36637986 37 126 C44.08873321 132.89754331 52.11777875 135.56921308 61.875 135.4375 C62.66438965 135.42992676 63.4537793 135.42235352 64.26708984 135.41455078 C75.15043072 135.10782013 83.27285606 130.78680169 90.875 123.10546875 C97.47146034 115.44277021 102.06663834 104.00315604 102.15821838 93.79852295 C102.1680072 92.96843719 102.17779602 92.13835144 102.18788147 91.28311157 C102.19363693 90.3811203 102.1993924 89.47912903 102.20532227 88.54980469 C102.21522186 87.59337067 102.22512146 86.63693665 102.23532104 85.65151978 C102.2668965 82.49166332 102.29167792 79.33179184 102.31640625 76.171875 C102.33697918 73.98040375 102.35797575 71.78893644 102.37937927 69.59747314 C102.43456485 63.8304361 102.48398967 58.06336345 102.53222656 52.29626465 C102.5824672 46.41101921 102.6381399 40.52582546 102.69335938 34.640625 C102.800898 23.09379252 102.90185058 11.54691611 103 0 C111.58 0 120.16 0 129 0 C129 51.15 129 102.3 129 155 C120.42 155 111.84 155 103 155 C102.505 144.605 102.505 144.605 102 134 C100.88625 135.485 99.7725 136.97 98.625 138.5 C90.32020756 148.80085659 80.20447574 155.72534082 67 158 C49.23260941 159.15044421 33.21826906 158.28271091 18.59375 147.171875 C5.17385408 135.13073551 1.23865004 117.24773377 0 100 C-0.12094137 96.52255225 -0.12749364 93.05080194 -0.11352539 89.5715332 C-0.11367142 88.59456985 -0.11381744 87.61760651 -0.1139679 86.61103821 C-0.11327858 83.42426224 -0.10553275 80.23754683 -0.09765625 77.05078125 C-0.09578858 74.82447847 -0.09436632 72.59817528 -0.09336853 70.37187195 C-0.08957085 64.54406579 -0.07976435 58.71628499 -0.06866455 52.88848877 C-0.05839101 46.92891788 -0.05385823 40.96934284 -0.04882812 35.00976562 C-0.03813935 23.33983088 -0.02056513 11.66992153 0 0 Z " fill="#0089D6" transform="translate(876,176)"/>
<path d="M0 0 C39.6 0 79.2 0 120 0 C120 8.99846538 120 8.99846538 117.83203125 11.8671875 C117.35773682 12.51550537 116.88344238 13.16382324 116.39477539 13.83178711 C115.87262451 14.50604736 115.35047363 15.18030762 114.8125 15.875 C114.00317017 16.96856812 114.00317017 16.96856812 113.17749023 18.08422852 C112.03761991 19.62383419 110.89040249 21.15802436 109.73632812 22.68701172 C107.50339117 25.66153994 105.33455473 28.67950792 103.16674805 31.70166016 C101.54586468 33.96068464 99.91678443 36.21357006 98.28515625 38.46484375 C95.01866647 42.97312352 91.75878026 47.48614565 88.5 52 C87.41669638 53.50002146 86.33336304 55.00002146 85.25 56.5 C84.71375 57.2425 84.1775 57.985 83.625 58.75 C65.75 83.5 65.75 83.5 64.12475586 85.75024414 C63.04211746 87.2493445 61.9595978 88.74853062 60.87719727 90.24780273 C58.15920177 94.01228168 55.43911932 97.77521904 52.71484375 101.53515625 C52.16570313 102.29376953 51.6165625 103.05238281 51.05078125 103.83398438 C50.03987474 105.23040607 49.0282665 106.62632033 48.015625 108.02148438 C42.26932569 115.9630857 36.65425903 123.98979971 31 132 C74.56 132.495 74.56 132.495 119 133 C119 140.26 119 147.52 119 155 C77.09 155 35.18 155 -8 155 C-8 145.56044378 -7.68256193 143.14557501 -2.3125 136.5 C-1.10871931 134.92628259 0.09438718 133.35204928 1.296875 131.77734375 C2.2240332 130.58794189 2.2240332 130.58794189 3.16992188 129.37451172 C6.02274972 125.67299042 8.72323262 121.86607049 11.4375 118.0625 C16.49688411 111.04012689 21.62445825 104.06943327 26.76708984 97.10791016 C32.90919634 88.78497251 38.95790683 80.39567785 45 72 C47.14463236 69.01996611 49.29025585 66.04065263 51.4375 63.0625 C51.96835205 62.32612305 52.4992041 61.58974609 53.04614258 60.83105469 C57.61146307 54.51121617 62.23506842 48.23504677 66.89233398 41.98266602 C71.75842101 35.41868127 76.33944919 28.73190673 81 22 C54.27 22 27.54 22 0 22 C0 14.74 0 7.48 0 0 Z " fill="#0089D6" transform="translate(729,176)"/>
<path d="M0 0 C0.72896484 -0.00773438 1.45792969 -0.01546875 2.20898438 -0.0234375 C3.2830957 -0.01957031 3.2830957 -0.01957031 4.37890625 -0.015625 C5.33325562 -0.01224121 5.33325562 -0.01224121 6.30688477 -0.00878906 C8.4375 0.25 8.4375 0.25 14.4375 2.25 C14.4375 11.16 14.4375 20.07 14.4375 29.25 C10.8075 27.93 7.1775 26.61 3.4375 25.25 C-6.74392835 23.69295932 -15.12105977 25.32058957 -23.5625 31.25 C-34.51164423 40.2922708 -39.24318686 56.57685034 -40.5625 70.25 C-40.71142953 73.24554372 -40.74608704 76.23743693 -40.76782227 79.23632812 C-40.78267166 80.52555176 -40.78267166 80.52555176 -40.79782104 81.84082031 C-40.82916364 84.65426979 -40.8540846 87.46773609 -40.87890625 90.28125 C-40.89949936 92.24280207 -40.92049642 94.20434994 -40.94187927 96.16589355 C-40.99685661 101.30815205 -41.04637241 106.45044897 -41.09472656 111.59277344 C-41.1451202 116.84834174 -41.20071268 122.10385481 -41.25585938 127.359375 C-41.3631429 137.65620273 -41.46465305 147.95307858 -41.5625 158.25 C-44.11460145 158.26356699 -46.66662972 158.27345216 -49.21875 158.28125 C-50.29431152 158.28753418 -50.29431152 158.28753418 -51.39160156 158.29394531 C-56.52364257 158.30568911 -61.47567829 157.97668882 -66.5625 157.25 C-67.65284583 153.97896251 -67.68561186 151.59979388 -67.68275452 148.1566925 C-67.68412918 146.88203125 -67.68550385 145.60737 -67.68692017 144.29408264 C-67.68338101 142.87875343 -67.6797462 141.46342445 -67.67602539 140.0480957 C-67.67574336 138.55998741 -67.67590156 137.07187897 -67.6764679 135.58377075 C-67.67675527 131.54067677 -67.67086824 127.49761234 -67.66389394 123.45452523 C-67.6576504 119.23044245 -67.65705581 115.00635902 -67.65586853 110.78227234 C-67.65275817 102.78189869 -67.64454875 94.78153867 -67.63451904 86.78117102 C-67.62334875 77.67365871 -67.61784514 68.56614575 -67.61282361 59.4586283 C-67.6023659 40.72241091 -67.58457115 21.98620705 -67.5625 3.25 C-58.9825 3.25 -50.4025 3.25 -41.5625 3.25 C-41.2325 11.83 -40.9025 20.41 -40.5625 29.25 C-38.5825 25.62 -36.6025 21.99 -34.5625 18.25 C-25.90679764 6.26400081 -14.81671541 -0.15804496 0 0 Z " fill="#0089D6" transform="translate(1120.5625,172.75)"/>
</svg>
