<svg xmlns="http://www.w3.org/2000/svg" xmlns:xlink="http://www.w3.org/1999/xlink" viewBox="0 0 725.45 75.35"><defs><style>.cls-1{isolation:isolate;}.cls-2{fill:#212121;}.cls-3,.cls-5,.cls-6{mix-blend-mode:multiply;}.cls-3{fill:url(#linear-gradient);}.cls-4{fill:url(#linear-gradient-2);}.cls-5{fill:url(#linear-gradient-3);}.cls-6{fill:url(#linear-gradient-4);}.cls-7{fill:url(#linear-gradient-5);}.cls-8{fill:url(#linear-gradient-6);}.cls-9{fill:url(#linear-gradient-7);}.cls-10{fill:#0d185c;}.cls-11{fill:#061e5c;}.cls-12{fill:#040f42;}</style><linearGradient id="linear-gradient" x1="-912.15" y1="103.69" x2="-853.97" y2="2.92" gradientTransform="translate(989.73)" gradientUnits="userSpaceOnUse"><stop offset="0.4" stop-color="#3c8ecd"/><stop offset="0.99" stop-color="#82cef2"/></linearGradient><linearGradient id="linear-gradient-2" x1="-7404.53" y1="99.5" x2="-7354.96" y2="13.63" gradientTransform="matrix(-1, 0, 0, 1, -7323.43, 0)" gradientUnits="userSpaceOnUse"><stop offset="0.4" stop-color="#c18dbe"/><stop offset="1" stop-color="#9db4dd"/></linearGradient><linearGradient id="linear-gradient-3" x1="-8060.05" y1="108.61" x2="-7991.77" y2="-9.66" gradientTransform="matrix(-1, 0, 0, 1, -7932.69, 0)" gradientUnits="userSpaceOnUse"><stop offset="0.4" stop-color="#454494"/><stop offset="1" stop-color="#76a1d6"/></linearGradient><linearGradient id="linear-gradient-4" x1="-849.59" y1="95.93" x2="-807.35" y2="22.77" gradientTransform="translate(989.73)" gradientUnits="userSpaceOnUse"><stop offset="0.4" stop-color="#56bdc1"/><stop offset="0.99" stop-color="#82cef2"/></linearGradient><linearGradient id="linear-gradient-5" x1="126.29" y1="109.23" x2="86.04" y2="39.5" gradientUnits="userSpaceOnUse"><stop offset="0.01" stop-color="#13287a"/><stop offset="1" stop-color="#1a3d8e"/></linearGradient><linearGradient id="linear-gradient-6" x1="39.4" y1="9.99" x2="88.59" y2="95.18" gradientUnits="userSpaceOnUse"><stop offset="0" stop-color="#466bb3"/><stop offset="0.73" stop-color="#3c3079"/></linearGradient><linearGradient id="linear-gradient-7" x1="125.09" y1="87.23" x2="160.39" y2="26.09" gradientUnits="userSpaceOnUse"><stop offset="0.19" stop-color="#1972a0"/><stop offset="1" stop-color="#3b9fd9"/></linearGradient></defs><title>Asset 1</title><g class="cls-1"><g id="Layer_2" data-name="Layer 2"><g id="Layer_1-2" data-name="Layer 1"><path class="cls-2" d="M268.09,38.86c5.84,0,9.35,2.7,9.35,7.25a6.3,6.3,0,0,1-5.34,6.53c4.18.62,6.62,3.36,6.62,7.32,0,4.93-3.89,7.86-10.42,7.86H255.89v-29Zm-8.89,12.5h8.73c3.88,0,6.16-1.7,6.16-4.72s-2.28-4.58-6.16-4.58H259.2Zm0,13.32h8.73c4.71,0,7.44-1.86,7.44-5.17,0-3.14-2.73-5-7.44-5H259.2Z"/><path class="cls-2" d="M304.58,60.5l-3.23,7.32h-3.52l13-29h3.44l12.94,29h-3.6l-3.22-7.32Zm7.86-17.87L306,57.31h13Z"/><path class="cls-2" d="M369,67.82,351.61,44.58V67.82H348.3v-29h3.43l17.38,23.3V38.86h3.26v29Z"/><path class="cls-2" d="M399.47,64.68h19.4l0,3.14h-23.7V65.17l19.19-23.11H395.67v-3.2h23v2.66Z"/><path class="cls-2" d="M444.11,60.5l-3.23,7.32h-3.51l13-29h3.44l12.94,29h-3.59l-3.23-7.32ZM452,42.63l-6.46,14.68h13Z"/><path class="cls-2" d="M487.83,67.82v-29h3.31v29Z"/><path class="cls-2" d="M540.2,43.5l-4.26,5a9.93,9.93,0,0,0-7.28-3.76,8.07,8.07,0,0,0-8.06,8.39c0,4.84,3.47,8.52,8.06,8.52a10.85,10.85,0,0,0,7.28-3.39l4.3,4.55a17.5,17.5,0,0,1-12,5.3c-8.72,0-15.22-6.42-15.22-14.9s6.65-14.64,15.47-14.64A16.79,16.79,0,0,1,540.2,43.5Z"/><path class="cls-2" d="M579.79,61.66v6.16H560.14v-29h7.36v22.8Z"/><path class="cls-2" d="M629.27,53.3c0,8.44-6.7,14.86-15.68,14.86S598,61.78,598,53.3s6.69-14.68,15.63-14.68S629.27,44.91,629.27,53.3Zm-23.79.05A8.43,8.43,0,0,0,613.67,62c4.47,0,8-3.77,8-8.64s-3.55-8.56-8-8.56A8.31,8.31,0,0,0,605.48,53.35Z"/><path class="cls-2" d="M675.76,55.66c0,7.65-5.09,12.5-13.2,12.5s-13.35-4.85-13.35-12.5V38.86h7.35v16.8c0,3.93,2.53,6.33,6.05,6.33s5.83-2.4,5.83-6.33V38.86h7.32Z"/><path class="cls-2" d="M710.06,38.86c9.1,0,15.39,5.88,15.39,14.49s-6.37,14.47-15.69,14.47H697.6v-29ZM705,62h5.26c4.5,0,7.73-3.48,7.73-8.57s-3.39-8.64-8.07-8.64H705Z"/><path class="cls-3" d="M139.74,11.15c44.6,0,43.48,64.2,0,64.2H28.49C92.8,75.35,94.78,11.15,139.74,11.15Z"/><path class="cls-4" d="M28.15,20.65c-38,0-37,54.7,0,54.7h94.78C68.14,75.35,66.45,20.65,28.15,20.65Z"/><path class="cls-5" d="M54.41,0c-52.34,0-51,75.35,0,75.35H185C109.51,75.35,107.17,0,54.41,0Z"/><path class="cls-6" d="M185.27,28.74c32.37,0,31.56,46.61,0,46.61H104.5C151.19,75.35,152.63,28.74,185.27,28.74Z"/><path class="cls-7" d="M156.87,71.21A78.3,78.3,0,0,1,139.24,63c-14.68-9.16-25.16-22-35.42-33.78-8.26,8.69-16,19.08-25.93,27.8-9,7.87-19.78,14.38-34.44,17a83.8,83.8,0,0,1-15,1.29H185A90.84,90.84,0,0,1,156.87,71.21Z"/><path class="cls-8" d="M113.33,74.74C97.5,72.67,86.72,65.5,77.89,57,61.31,41.13,51.58,20.65,28.15,20.65a33.37,33.37,0,0,0-9.45,1.29C10.47,41.5,19,68,43.45,74.06a45.07,45.07,0,0,0,11,1.29h68.52A72.78,72.78,0,0,1,113.33,74.74Z"/><path class="cls-9" d="M171.07,32.26c-12,6.45-19.54,20.45-31.83,30.75-8.38,7-19,12.34-34.74,12.34h35.24a34.88,34.88,0,0,0,17.13-4.14C170.84,63.46,175.69,46.27,171.07,32.26Z"/><path class="cls-10" d="M77.89,57c-9,7.87-19.78,14.38-34.44,17a45.07,45.07,0,0,0,11,1.29H104.5a61.19,61.19,0,0,0,8.82-.61C97.5,72.67,86.72,65.5,77.89,57Z"/><path class="cls-11" d="M139.24,63a50,50,0,0,1-25.92,11.73h0a72.78,72.78,0,0,0,9.6.61h16.81a34.88,34.88,0,0,0,17.13-4.14A78.3,78.3,0,0,1,139.24,63Z"/><path class="cls-12" d="M113.32,74.74a61.19,61.19,0,0,1-8.82.61h18.43a72.78,72.78,0,0,1-9.6-.61Z"/></g></g></g></svg>