<svg xmlns="http://www.w3.org/2000/svg" viewBox="0 0 367.47 91.48"><defs><style>.cls-1{fill:#00aeef;}.cls-2{fill:#fff;}.cls-3{fill:#414042;}</style></defs><title>Asset 1</title><g id="Layer_2" data-name="Layer 2"><g id="Layer_1-2" data-name="Layer 1"><path class="cls-1" d="M39.12,91.48S78.23,78.16,78.23,29.29V11.7a3.62,3.62,0,0,0-3.37-3.6c-7.11-.33-24-1.78-35.74-8.1C27.32,6.32,10.48,7.77,3.37,8.1A3.62,3.62,0,0,0,0,11.7V29.29C0,78.16,39.12,91.48,39.12,91.48Z"/><path id="symbol" class="cls-2" d="M54.92,35.72c-.47-5.34-5-7.17-10.86-7.72l0-7.45-4.5,0v7.21c-1.18,0-2.46,0-3.66,0V20.5H31.4l0,7.4c-1,0-9.08,0-9.08,0v4.73h5.77l0,23.79-5.05,0,0,5.42s7.14,0,8.19,0l0,7.49,4.46,0,0-7.4q1.86.06,3.6.06v7.38h4.54l0-7.44c7.58-.39,12.89-2.26,13.6-9.37.58-5.72-2.1-8.3-6.39-9.36,2.62-1.31,4.27-3.64,3.91-7.55Zm-6.41,16c0,5.6-9.53,4.9-12.59,4.88V46.64C39,46.66,48.55,45.85,48.51,51.68Zm-2-14c0,5.09-7.94,4.44-10.49,4.42l0-9C38.55,33.11,46.55,32.36,46.51,37.67Z"/><path class="cls-3" d="M156,60.63a19.25,19.25,0,0,1-2.31,9.81,18.34,18.34,0,0,1-6.14,6.39,26.67,26.67,0,0,1-8.7,3.47,47,47,0,0,1-10,1.06H100.43V10.11h28.38a43.68,43.68,0,0,1,8.46.86,24.94,24.94,0,0,1,7.85,2.92,16.62,16.62,0,0,1,5.73,5.58,16.55,16.55,0,0,1,2.22,9,14.86,14.86,0,0,1-3.22,9.81,18,18,0,0,1-8.46,5.59V44a19.3,19.3,0,0,1,5.69,1.86A16.06,16.06,0,0,1,156,60.63ZM136.46,30.74a5.7,5.7,0,0,0-2.77-5.28c-1.84-1.11-4.58-1.66-8.2-1.66H117V38.49h9.26q4.83,0,7.49-2A6.73,6.73,0,0,0,136.46,30.74ZM138.78,59q0-4.43-3.33-6.14a19.41,19.41,0,0,0-8.85-1.71H117v16.3h9.66a25.53,25.53,0,0,0,4.18-.35,12.79,12.79,0,0,0,3.92-1.26,7.13,7.13,0,0,0,4-6.84Z"/><path class="cls-3" d="M178.86,15.25a8.59,8.59,0,0,1-.75,3.57,9.06,9.06,0,0,1-5,4.78,9.78,9.78,0,0,1-3.67.7,9.27,9.27,0,0,1-6.74-2.66,8.65,8.65,0,0,1-2.72-6.39,8.83,8.83,0,0,1,.7-3.48,8.27,8.27,0,0,1,2-2.86,10.94,10.94,0,0,1,3-2,9.16,9.16,0,0,1,3.72-.75,9.78,9.78,0,0,1,3.67.7,9.18,9.18,0,0,1,3,1.92,9.31,9.31,0,0,1,2,2.86A8.6,8.6,0,0,1,178.86,15.25ZM161.15,81.36V31.25h16.5V81.36Z"/><path class="cls-3" d="M207.57,43.52v19.2a8.68,8.68,0,0,0,1.35,5.3q1.37,1.77,4.88,1.77a18.07,18.07,0,0,0,2.57-.2,9,9,0,0,0,2.27-.61l.2,12.08a28.58,28.58,0,0,1-4.33,1.06,30.87,30.87,0,0,1-5.23.45,24.65,24.65,0,0,1-8.46-1.26,13.06,13.06,0,0,1-5.48-3.63,14.18,14.18,0,0,1-3-5.65,27.67,27.67,0,0,1-.91-7.32V43.52h-8.05V31.25h8V18.06h16.21V31.25h11.77V43.52Z"/><path class="cls-3" d="M279.07,81.46a64.21,64.21,0,0,1-15.25,1.71,44.3,44.3,0,0,1-15.75-2.71,36.47,36.47,0,0,1-12.38-7.65A35,35,0,0,1,227.59,61a38.88,38.88,0,0,1-2.92-15.34,39.05,39.05,0,0,1,3-15.5,34.67,34.67,0,0,1,8.2-11.83,36.29,36.29,0,0,1,12.28-7.49,43.19,43.19,0,0,1,15.2-2.62A46.65,46.65,0,0,1,279,10.77a32.46,32.46,0,0,1,11.78,6.89L279.92,30a18.77,18.77,0,0,0-6.64-4.78,22.54,22.54,0,0,0-9.36-1.86,20.68,20.68,0,0,0-8.35,1.66,19.87,19.87,0,0,0-6.64,4.63,21,21,0,0,0-4.38,7A24.75,24.75,0,0,0,243,45.64a27.8,27.8,0,0,0,1.41,9,19.51,19.51,0,0,0,4.17,7.1,19.08,19.08,0,0,0,6.85,4.63,24.62,24.62,0,0,0,9.31,1.66,35,35,0,0,0,5.73-.45,21.79,21.79,0,0,0,5-1.46v-13H261.91V39.3h29.38V77A54.31,54.31,0,0,1,279.07,81.46Z"/><path class="cls-3" d="M353.34,56.1a27.15,27.15,0,0,1-2.21,11.12,25.08,25.08,0,0,1-6,8.46,27.6,27.6,0,0,1-8.86,5.38,31.15,31.15,0,0,1-21.48,0,27,27,0,0,1-8.86-5.38,25.34,25.34,0,0,1-6-8.46,27,27,0,0,1-2.22-11.12A26.69,26.69,0,0,1,299.91,45a24.89,24.89,0,0,1,6-8.35,26.12,26.12,0,0,1,8.86-5.23,32.77,32.77,0,0,1,21.48,0,26.71,26.71,0,0,1,8.86,5.23,24.63,24.63,0,0,1,6,8.35A26.85,26.85,0,0,1,353.34,56.1Zm-15.9,0a14.5,14.5,0,0,0-.8-4.73,12.48,12.48,0,0,0-2.32-4.07,11.7,11.7,0,0,0-3.72-2.87,12.43,12.43,0,0,0-10.27,0,11.17,11.17,0,0,0-3.67,2.87,12.23,12.23,0,0,0-2.21,4.07,15.1,15.1,0,0,0,0,9.46A12.93,12.93,0,0,0,316.71,65a11,11,0,0,0,8.86,4.07A11.32,11.32,0,0,0,330.7,68a11.17,11.17,0,0,0,3.72-3,12.76,12.76,0,0,0,2.27-4.18A15.24,15.24,0,0,0,337.44,56.1Z"/><path class="cls-3" d="M361.7,71.55a5.71,5.71,0,1,1-5.81,5.69A5.69,5.69,0,0,1,361.7,71.55Zm0,.92a4.79,4.79,0,1,0,4.66,4.77A4.65,4.65,0,0,0,361.7,72.47Zm-1.22,8.08h-1V74H362c1.57,0,2.34.59,2.34,1.88a1.72,1.72,0,0,1-1.73,1.82l1.88,2.89h-1.11l-1.75-2.86h-1.14Zm0-3.69h1.2c1.23,0,1.63-.36,1.63-1.08s-.31-1-1.46-1h-1.37Z"/></g></g></svg>