<svg xmlns="http://www.w3.org/2000/svg" xmlns:xlink="http://www.w3.org/1999/xlink" id="Capa_1" x="0px" y="0px" viewBox="0 0 142.2 37.7" style="enable-background:new 0 0 142.2 37.7;" xml:space="preserve">
<style type="text/css">
	.st0{fill:#111212;}
	.st1{fill:url(#SVGID_1_);}
	.st2{fill:url(#SVGID_2_);}
	.st3{fill:#4B4C4C;}
</style>
<g>
	<g>
		<g>
			<path class="st0" d="M48.3,17.4c-0.6-1.2-1.8-2-3.3-2c-2.1,0-3.7,1.7-3.7,3.8s1.6,3.9,3.7,3.9c1.4,0,2.6-0.8,3.3-2h1.8     c-0.7,2.1-2.7,3.6-5.1,3.6c-3,0-5.4-2.5-5.4-5.4c0-3,2.4-5.4,5.4-5.4c2.3,0,4.3,1.5,5.1,3.5H48.3z"></path>
			<path class="st0" d="M52.5,7.6H54v16.9h-1.6L52.5,7.6L52.5,7.6z"></path>
			<path class="st0" d="M56.4,19.3c0-3,2.4-5.4,5.4-5.4s5.4,2.4,5.4,5.4c0,2.9-2.4,5.4-5.4,5.4S56.4,22.2,56.4,19.3z M58.1,19.3     c0,2.1,1.6,3.9,3.7,3.9s3.7-1.8,3.7-3.9s-1.6-3.8-3.7-3.8S58.1,17.2,58.1,19.3z"></path>
			<path class="st0" d="M78.6,24.4H77v-1.3c-0.8,0.9-2,1.4-3.4,1.4c-3,0-4.2-1.3-4.2-4.6V14H71v6c0,2.1,0.9,3.1,2.7,3.1     c2.1,0,3.4-1.2,3.4-3.5V14h1.6L78.6,24.4L78.6,24.4z"></path>
			<path class="st0" d="M90.5,22.8c-0.9,1.2-2.3,1.9-3.9,1.9c-3,0-5.4-2.5-5.4-5.4c0-3,2.4-5.4,5.4-5.4c1.6,0,3,0.7,3.9,1.9V7.6h1.6     v16.9h-1.6V22.8z M90.4,19.3c0-2.1-1.8-3.8-3.9-3.8s-3.7,1.7-3.7,3.8s1.6,3.9,3.7,3.9C88.6,23.1,90.4,21.3,90.4,19.3z"></path>
			<path class="st0" d="M103.1,17.4c-0.6-1.2-1.8-2-3.3-2c-2.1,0-3.7,1.7-3.7,3.8s1.6,3.9,3.7,3.9c1.4,0,2.6-0.8,3.3-2h1.8     c-0.7,2.1-2.7,3.6-5.1,3.6c-3,0-5.4-2.5-5.4-5.4c0-3,2.4-5.4,5.4-5.4c2.3,0,4.3,1.5,5.1,3.5H103.1z"></path>
			<path class="st0" d="M106.6,19.3c0-3,2.4-5.4,5.4-5.4c1.6,0,3,0.7,3.9,1.9V14h1.6v10.4h-1.6v-1.7c-0.9,1.2-2.3,1.9-3.9,1.9     C109,24.7,106.6,22.2,106.6,19.3z M115.8,19.3c0-2.1-1.8-3.8-3.9-3.8s-3.7,1.7-3.7,3.8s1.6,3.9,3.7,3.9     C114,23.1,115.8,21.3,115.8,19.3z"></path>
			<path class="st0" d="M126.2,16.6c-0.1-0.7-0.9-1.2-2.1-1.2c-1.3,0-2.1,0.6-2.1,1.4c0,0.8,0.7,1.2,2.4,1.6     c2.7,0.5,3.7,1.5,3.7,3.2c0,1.8-1.4,3.1-4,3.1c-2.3,0-3.9-1.3-4-3.1h1.4c0.1,0.9,1.2,1.6,2.5,1.6c1.5,0,2.5-0.7,2.5-1.6     c0-1-0.7-1.3-2.5-1.7c-2.5-0.5-3.6-1.4-3.6-3s1.2-2.9,3.6-2.9c2.1,0,3.4,1.1,3.6,2.7h-1.4V16.6z"></path>
			<path class="st0" d="M129.8,19.3c0-3,2.4-5.4,5.4-5.4c1.6,0,3,0.7,3.9,1.9V14h1.6v10.4h-1.6v-1.7c-0.9,1.2-2.3,1.9-3.9,1.9     C132.2,24.7,129.8,22.2,129.8,19.3z M139,19.3c0-2.1-1.8-3.8-3.9-3.8c-2.1,0-3.7,1.7-3.7,3.8s1.6,3.9,3.7,3.9     C137.2,23.1,139,21.3,139,19.3z"></path>
		</g>
	</g>
	<g>
		
			<linearGradient id="SVGID_1_" gradientUnits="userSpaceOnUse" x1="6.4811" y1="8.4972" x2="32.3879" y2="33.5151" gradientTransform="matrix(1 0 0 -1 0 40)">
			<stop offset="0" style="stop-color:#853C72"></stop>
			<stop offset="1" style="stop-color:#DC238C"></stop>
		</linearGradient>
		<path class="st1" d="M31,5.2C27.9,2.6,23.8,1,19.4,1c-9.9,0-18,8.1-18,18s8.1,18,18,18c4.4,0,8.5-1.6,11.6-4.2l1.6-1.5l-3.8-1.5    c-2.5,2.1-5.7,3.3-9.1,3.3c-7.8,0-14.2-6.3-14.2-14.2c0-7.8,6.3-14.2,14.2-14.2c3.5,0,6.7,1.3,9.1,3.3l3.8-1.5l0,0L31,5.2z"></path>
		
			<linearGradient id="SVGID_2_" gradientUnits="userSpaceOnUse" x1="10.7624" y1="12.5169" x2="28.59" y2="29.7327" gradientTransform="matrix(1 0 0 -1 0 40)">
			<stop offset="0" style="stop-color:#853C72"></stop>
			<stop offset="1" style="stop-color:#DC238C"></stop>
		</linearGradient>
		<path class="st2" d="M19.7,31.3c6.8,0,12.4-5.6,12.4-12.4S26.5,6.5,19.7,6.5c-3.4,0-6.5,1.4-8.8,3.6l2.4,2.4    c1.6-1.6,3.9-2.7,6.4-2.7c5,0,9.1,4.1,9.1,9.1S24.7,28,19.7,28c-2.5,0-4.8-1-6.4-2.7l-2.4,2.4C13.2,29.9,16.3,31.3,19.7,31.3z"></path>
	</g>
</g>
<g>
	<path class="st3" d="M97.8,30.5c1.1,0,1.8,0.8,1.8,2c0,1.2-0.8,2-1.8,2c-0.7,0-1.2-0.4-1.5-0.8v0.7h-0.6v-5.3h0.6v2.1   C96.6,30.8,97.1,30.5,97.8,30.5z M97.7,31c-0.7,0-1.3,0.5-1.3,1.4c0,0.9,0.6,1.5,1.3,1.5c0.7,0,1.3-0.5,1.3-1.5   C99,31.5,98.4,31,97.7,31z"></path>
	<path class="st3" d="M103.2,30.5h0.7l-2.3,5.7h-0.7l0.8-1.9l-1.6-3.9h0.7l1.2,3.2L103.2,30.5z"></path>
	<path class="st3" d="M108.7,29.4c1.1,0,1.9,0.5,2.3,1.5h-0.8c-0.3-0.6-0.8-0.9-1.5-0.9c-1,0-1.8,0.8-1.8,2c0,1.2,0.8,2,1.8,2   c0.7,0,1.3-0.3,1.5-0.9h0.8c-0.4,1-1.2,1.5-2.3,1.5c-1.4,0-2.5-1-2.5-2.5C106.2,30.5,107.3,29.4,108.7,29.4z"></path>
	<path class="st3" d="M113.5,30.5c0.7,0,1.2,0.4,1.5,0.8v-0.7h0.7v3.9H115v-0.7c-0.2,0.4-0.7,0.8-1.5,0.8c-1,0-1.8-0.8-1.8-2   C111.7,31.2,112.5,30.5,113.5,30.5z M113.7,31c-0.7,0-1.3,0.5-1.3,1.4c0,0.9,0.6,1.5,1.3,1.5s1.3-0.5,1.3-1.5   C115,31.6,114.4,31,113.7,31z"></path>
	<path class="st3" d="M116.9,31.1h-0.5v-0.5h0.5v-1h0.6v1h1v0.5h-1v2.3c0,0.4,0.1,0.5,0.5,0.5h0.5v0.5h-0.6c-0.7,0-1.1-0.3-1.1-1.1   V31.1z"></path>
	<path class="st3" d="M120.9,30.5c0.7,0,1.2,0.4,1.5,0.8v-0.7h0.7v3.9h-0.7v-0.7c-0.2,0.4-0.7,0.8-1.5,0.8c-1,0-1.8-0.8-1.8-2   C119.1,31.2,119.9,30.5,120.9,30.5z M121,31c-0.7,0-1.3,0.5-1.3,1.4c0,0.9,0.6,1.5,1.3,1.5c0.7,0,1.3-0.5,1.3-1.5   C122.4,31.6,121.8,31,121,31z"></path>
	<path class="st3" d="M124.1,29.2h0.6v5.3h-0.6V29.2z"></path>
	<path class="st3" d="M127.6,34.5c-1.1,0-1.9-0.8-1.9-2c0-1.2,0.9-2,2-2c1.1,0,2,0.8,2,2C129.6,33.7,128.7,34.5,127.6,34.5z    M127.6,33.9c0.7,0,1.3-0.5,1.3-1.5c0-1-0.6-1.4-1.3-1.4c-0.7,0-1.3,0.5-1.3,1.4C126.3,33.5,126.9,33.9,127.6,33.9z"></path>
	<path class="st3" d="M132,30.5c0.7,0,1.2,0.4,1.5,0.8v-0.7h0.7v4c0,1.1-0.7,1.8-1.9,1.8c-1,0-1.8-0.5-1.9-1.4h0.6   c0.1,0.5,0.6,0.8,1.2,0.8c0.7,0,1.2-0.4,1.2-1.3v-0.8c-0.2,0.4-0.7,0.8-1.5,0.8c-1,0-1.8-0.8-1.8-2C130.2,31.2,131,30.5,132,30.5z    M132.2,31c-0.7,0-1.3,0.5-1.3,1.4c0,0.9,0.6,1.5,1.3,1.5c0.7,0,1.3-0.5,1.3-1.5C133.5,31.6,132.9,31,132.2,31z"></path>
	<path class="st3" d="M135.1,29.5c0-0.2,0.2-0.4,0.4-0.4c0.2,0,0.4,0.2,0.4,0.4c0,0.2-0.2,0.4-0.4,0.4   C135.3,29.9,135.1,29.7,135.1,29.5z M135.2,30.5h0.6v3.9h-0.6V30.5z"></path>
	<path class="st3" d="M138.6,30.5c1,0,1.6,0.5,1.8,1.3h-0.7c-0.1-0.5-0.5-0.8-1.1-0.8c-0.7,0-1.2,0.5-1.2,1.5c0,1,0.5,1.5,1.2,1.5   c0.6,0,1-0.3,1.1-0.8h0.7c-0.2,0.8-0.8,1.3-1.8,1.3c-1.1,0-1.9-0.8-1.9-2C136.7,31.2,137.5,30.5,138.6,30.5z"></path>
</g>
</svg>