<svg xmlns="http://www.w3.org/2000/svg" width="92" height="25" viewBox="0 0 92 25">
    <g fill="#0B74DE" fill-rule="nonzero">
        <path d="M34.383 20.325V4.5h3.45v6.542L43.067 4.5h4.008l-5.3 6.183 5.833 9.642H43.75l-4.208-6.992-1.667 1.95v5.067z"/>
        <path d="M47.367 24.275l.708-2.608c.158.041.433.108.833.183.436.09.88.131 1.325.125.313.014.623-.064.892-.225.256-.193.446-.46.542-.767l.216-.558-4.333-11.5h3.508l2.5 7.4 2.5-7.4h3.292l-4.725 12.6c-.175.457-.39.897-.642 1.317a4.4 4.4 0 0 1-.833 1c-.324.28-.701.492-1.108.625a4.4 4.4 0 0 1-1.475.216c-.675.012-1.35-.035-2.017-.141a14.233 14.233 0 0 1-1.183-.267zM61.258 20.325v-11.4h3.4v1.783c.181-.246.385-.475.609-.683.256-.243.535-.46.833-.65.32-.204.664-.366 1.025-.483a3.65 3.65 0 0 1 1.233-.192 3.55 3.55 0 0 1 2.134.533 2.5 2.5 0 0 1 .95 1.475c.175-.208.383-.433.616-.675.25-.252.53-.473.834-.658a4.7 4.7 0 0 1 1.033-.483c.4-.135.82-.2 1.242-.192.497-.01.992.075 1.458.25.395.16.748.408 1.033.725.279.321.483.7.6 1.108.136.454.2.927.192 1.4v8.142h-3.417v-7.242a2.333 2.333 0 0 0-.241-1.175 1.067 1.067 0 0 0-.984-.391c-.409-.002-.81.11-1.158.325a7.425 7.425 0 0 0-1.092.833v7.667h-3.4v-7.259a2.333 2.333 0 0 0-.241-1.175 1.075 1.075 0 0 0-.984-.391 2.225 2.225 0 0 0-1.175.325 7.5 7.5 0 0 0-1.1.833v7.667l-3.4-.017zM80.825 17.408a3.458 3.458 0 0 1 1.667-3.066 12.008 12.008 0 0 1 5.416-1.417v-.275a1.4 1.4 0 0 0-.341-1 1.533 1.533 0 0 0-1.167-.375 5.125 5.125 0 0 0-2 .392c-.6.265-1.16.61-1.667 1.025l-1.441-1.975a8.5 8.5 0 0 1 .975-.717c.385-.253.792-.47 1.216-.65a7.933 7.933 0 0 1 1.534-.458c.63-.115 1.268-.171 1.908-.167a4.275 4.275 0 0 1 3.333 1.133 4.85 4.85 0 0 1 1.017 3.334v4.383c-.007.556.015 1.113.067 1.667.033.373.118.74.25 1.091h-3.384c-.066-.25-.125-.5-.175-.775a4.292 4.292 0 0 1-.083-.9A5.383 5.383 0 0 1 86.233 20c-.685.33-1.44.493-2.2.475a3.633 3.633 0 0 1-1.2-.192 3.142 3.142 0 0 1-1.025-.591 2.692 2.692 0 0 1-.691-.975 3.242 3.242 0 0 1-.292-1.309zm3.333-.591a1 1 0 0 0 .342.833c.26.19.578.283.9.267.522.013 1.04-.08 1.525-.275a3.208 3.208 0 0 0 1.042-.717v-2.108a7.975 7.975 0 0 0-2.917.708c-.526.22-.879.722-.908 1.292h.016zM0 5v9.6c.645-.33 1.36-.5 2.083-.5h2.084a11.95 11.95 0 0 0 7.616-2.5c-.55-.5-1.091-1-1.616-1.5C7.5 7.608 4.775 5.242 0 5z"/>
        <path d="M25.508 5.117c-4.675.225-7.175 2.566-9.766 5.041-2.842 2.7-5.834 5.492-11.617 5.492H2.083c-.76 0-1.46.42-1.816 1.092a2.117 2.117 0 0 0-.267.975v2.616h25.5l.008-15.216zM12.258 4.167C10.083 2.075 7.9 0 3.55 0v4.167a13.8 13.8 0 0 1 5 2.691 13.275 13.275 0 0 0 3.708-2.691z"/>
        <path d="M21.283.717c-3.616.208-5.525 2.033-7.5 3.958a18.042 18.042 0 0 1-4.008 3.142c.458.416.917.833 1.358 1.275a41.392 41.392 0 0 0 1.759 1.616c.616-.533 1.216-1.1 1.825-1.666 1.883-1.792 3.825-3.6 6.608-4.634L21.283.717z"/>
    </g>
</svg>
