<?xml version="1.0" encoding="utf-8"?>
<!-- Generator: Adobe Illustrator 16.0.4, SVG Export Plug-In . SVG Version: 6.00 Build 0)  -->
<!DOCTYPE svg PUBLIC "-//W3C//DTD SVG 1.1//EN" "http://www.w3.org/Graphics/SVG/1.1/DTD/svg11.dtd">
<svg version="1.1" id="Layer_1" xmlns="http://www.w3.org/2000/svg" xmlns:xlink="http://www.w3.org/1999/xlink" x="0px" y="0px"
	 width="490.367px" height="105.045px" viewBox="0 0 490.367 105.045" enable-background="new 0 0 490.367 105.045"
	 xml:space="preserve">
<g>
	<g>
		<path fill="#1F355E" d="M146.449,80.72V52.738c0-8.059-3.738-12.09-11.213-12.09c-2.729,0-4.842,0.229-6.336,0.685
			c-1.496,0.453-2.568,0.843-3.217,1.17V80.72h-13.648v-46.7c0.26-0.13,1.039-0.453,2.338-0.975c1.299-0.52,2.975-1.055,5.023-1.609
			c2.045-0.551,4.451-1.039,7.213-1.463c2.762-0.421,5.768-0.633,9.02-0.633c3.639,0,6.971,0.456,9.994,1.365
			c3.02,0.911,5.604,2.243,7.748,3.998c2.146,1.753,3.803,3.916,4.975,6.481c1.168,2.569,1.754,5.507,1.754,8.822V80.72H146.449z"/>
		<path fill="#1F355E" d="M174.811,36.849c0-2.209,0.646-3.739,1.947-4.584c1.301-0.843,3.023-1.266,5.168-1.266
			c1.494,0,2.877,0.162,4.143,0.487c1.268,0.327,2.062,0.552,2.391,0.683V80.72h-13.648V36.849z M189.146,16.426
			c0,4.175-3.385,7.562-7.562,7.562c-4.176,0-7.561-3.387-7.561-7.562c0-4.176,3.385-7.561,7.561-7.561
			C185.762,8.866,189.146,12.25,189.146,16.426z"/>
		<path fill="#1F355E" d="M226.691,40.648c-2.729,0-4.842,0.279-6.336,0.829c-1.496,0.554-2.535,0.994-3.119,1.316V80.72h-13.65
			V35.287c0.26-0.196,0.977-0.616,2.145-1.267c1.17-0.648,2.715-1.316,4.633-1.999c1.916-0.683,4.143-1.298,6.676-1.852
			c2.537-0.55,5.297-0.83,8.289-0.83c1.816,0,3.541,0.13,5.168,0.39c1.623,0.261,3.053,0.651,4.287,1.172
			c1.234,0.52,2.211,1.201,2.926,2.046s1.072,1.886,1.072,3.119c0,1.821-0.357,3.252-1.072,4.291
			c-0.715,1.041-1.334,1.819-1.854,2.339c-0.193-0.193-0.617-0.405-1.266-0.633c-0.65-0.228-1.398-0.456-2.244-0.683
			c-0.844-0.228-1.77-0.406-2.777-0.536C228.559,40.716,227.602,40.648,226.691,40.648z"/>
		<path fill="#1F355E" d="M270.416,29.34c3.965,0,7.637,0.619,11.016,1.852c3.381,1.237,6.109,3.185,8.191,5.851
			c1.623-2.08,3.85-3.883,6.678-5.411s6.389-2.292,10.674-2.292c2.859,0,5.559,0.407,8.096,1.219
			c2.535,0.813,4.744,2.015,6.625,3.607c1.889,1.592,3.365,3.556,4.438,5.897s1.611,5.037,1.611,8.093V80.72h-13.65V51.958
			c0-3.835-0.814-6.677-2.436-8.531c-1.629-1.853-4-2.778-7.119-2.778c-3.186,0-5.688,1.072-7.508,3.218s-2.729,5.33-2.729,9.553
			V80.72h-13.65V52.738c0-4.095-0.844-7.133-2.533-9.115c-1.691-1.983-4.387-2.975-8.092-2.975c-2.73,0-4.744,0.229-6.045,0.685
			c-1.301,0.453-2.275,0.843-2.924,1.17V80.72h-13.65v-46.7c0.26-0.13,1.008-0.453,2.242-0.975c1.234-0.52,2.842-1.055,4.826-1.609
			c1.982-0.551,4.32-1.039,7.021-1.463C264.193,29.552,267.166,29.34,270.416,29.34z"/>
		<path fill="#1F355E" d="M386.85,80.329c-0.193,0.064-0.912,0.194-2.143,0.391c-1.236,0.192-2.877,0.388-4.926,0.584
			c-2.047,0.195-4.469,0.371-7.262,0.535c-2.797,0.162-5.852,0.243-9.166,0.243c-4.809,0-8.76-0.407-11.846-1.217
			c-3.086-0.813-5.541-1.936-7.359-3.364c-1.82-1.43-3.07-3.103-3.754-5.021c-0.684-1.917-1.021-4.011-1.021-6.289
			c0-2.792,0.422-5.229,1.266-7.311c0.844-2.078,2.211-3.787,4.094-5.118c1.887-1.329,4.305-2.323,7.266-2.972
			c2.953-0.65,6.547-0.977,10.773-0.977c2.922,0,5.363,0.081,7.309,0.243c1.949,0.164,3.088,0.277,3.41,0.343v-1.562
			c0-3.053-1.035-5.395-3.115-7.017c-2.082-1.625-5.301-2.438-9.656-2.438c-1.945,0-3.668,0.18-5.162,0.537
			c-1.496,0.358-2.781,0.782-3.854,1.267c-1.072,0.487-1.98,0.976-2.73,1.463c-0.744,0.489-1.35,0.863-1.801,1.122
			c-0.912-0.52-1.725-1.348-2.439-2.486c-0.715-1.136-1.072-2.422-1.072-3.851s0.457-2.648,1.367-3.655
			c0.908-1.007,2.129-1.819,3.652-2.438c1.531-0.615,3.283-1.055,5.268-1.316c1.982-0.259,4.014-0.39,6.094-0.39
			c3.961,0,7.588,0.34,10.869,1.024c3.281,0.682,6.109,1.852,8.48,3.51c2.371,1.657,4.209,3.867,5.51,6.629
			c1.299,2.764,1.949,6.223,1.949,10.381V80.329z M373.396,58.88c-0.193-0.063-0.584-0.129-1.172-0.195
			c-0.584-0.062-1.299-0.127-2.145-0.193c-0.842-0.067-1.768-0.114-2.777-0.148c-1.008-0.032-2.033-0.049-3.068-0.049
			c-2.41,0-4.355,0.197-5.854,0.586c-1.492,0.39-2.645,0.926-3.461,1.608c-0.812,0.682-1.361,1.496-1.656,2.438
			c-0.293,0.941-0.441,1.935-0.441,2.973c0,0.912,0.133,1.787,0.395,2.633c0.258,0.844,0.795,1.608,1.609,2.291
			c0.809,0.682,1.945,1.234,3.412,1.656c1.463,0.427,3.361,0.634,5.699,0.634c2.473,0,4.516-0.111,6.143-0.341
			c1.625-0.228,2.732-0.403,3.316-0.536V58.88z"/>
		<path fill="#1F355E" d="M417.287,42.11v21.547c0,2.859,0.662,4.793,1.998,5.8c1.33,1.008,3.07,1.511,5.215,1.511
			c0.91,0,1.807-0.111,2.682-0.34c0.879-0.229,1.656-0.487,2.338-0.78c0.688-0.292,1.254-0.587,1.705-0.879
			c0.453-0.291,0.717-0.469,0.785-0.537l5.068,8.189c-0.133,0.132-0.553,0.49-1.268,1.074c-0.721,0.585-1.742,1.202-3.072,1.853
			c-1.334,0.649-2.957,1.234-4.873,1.756c-1.918,0.519-4.08,0.778-6.486,0.778c-6.238,0-10.758-1.59-13.549-4.778
			c-2.797-3.182-4.191-7.31-4.191-12.38V42.11h-3.217c-2.213,0-3.756-0.486-4.631-1.462c-0.881-0.974-1.318-2.34-1.318-4.095
			c0-1.364,0.197-2.549,0.584-3.558c0.391-1.006,0.648-1.671,0.781-1.998h7.801v-8.58c0-2.208,0.646-3.736,1.949-4.583
			c1.301-0.843,3.021-1.267,5.166-1.267c1.492,0,2.873,0.163,4.143,0.487c1.266,0.329,2.066,0.554,2.391,0.683v13.26h10.432
			c2.207,0,3.754,0.487,4.627,1.463c0.879,0.974,1.32,2.338,1.32,4.093c0,1.367-0.195,2.552-0.584,3.558
			c-0.395,1.009-0.652,1.674-0.783,1.999H417.287z"/>
		<path fill="#1F355E" d="M490.367,80.329c-0.197,0.064-0.914,0.194-2.146,0.391c-1.234,0.192-2.875,0.388-4.926,0.584
			c-2.047,0.195-4.469,0.371-7.262,0.535c-2.795,0.162-5.852,0.243-9.164,0.243c-4.809,0-8.758-0.407-11.846-1.217
			c-3.084-0.813-5.541-1.936-7.359-3.364c-1.818-1.43-3.07-3.103-3.754-5.021c-0.684-1.917-1.021-4.011-1.021-6.289
			c0-2.792,0.422-5.229,1.268-7.311c0.842-2.078,2.209-3.787,4.09-5.118c1.889-1.329,4.309-2.323,7.266-2.972
			c2.955-0.65,6.549-0.977,10.771-0.977c2.926,0,5.365,0.081,7.314,0.243c1.947,0.164,3.082,0.277,3.41,0.343v-1.562
			c0-3.053-1.037-5.395-3.119-7.017c-2.082-1.625-5.299-2.438-9.652-2.438c-1.947,0-3.672,0.18-5.166,0.537
			c-1.494,0.358-2.779,0.782-3.85,1.267c-1.072,0.487-1.984,0.976-2.73,1.463c-0.748,0.489-1.352,0.863-1.805,1.122
			c-0.908-0.52-1.725-1.348-2.439-2.486c-0.711-1.136-1.07-2.422-1.07-3.851s0.455-2.648,1.367-3.655
			c0.908-1.007,2.127-1.819,3.652-2.438c1.531-0.615,3.283-1.055,5.27-1.316c1.98-0.259,4.012-0.39,6.094-0.39
			c3.959,0,7.584,0.34,10.867,1.024c3.281,0.682,6.109,1.852,8.479,3.51c2.375,1.657,4.209,3.867,5.51,6.629
			c1.301,2.764,1.953,6.223,1.953,10.381V80.329z M476.912,58.88c-0.195-0.063-0.584-0.129-1.172-0.195
			c-0.584-0.062-1.299-0.127-2.143-0.193c-0.844-0.067-1.771-0.114-2.779-0.148c-1.01-0.032-2.035-0.049-3.07-0.049
			c-2.408,0-4.355,0.197-5.852,0.586c-1.492,0.39-2.645,0.926-3.461,1.608c-0.812,0.682-1.361,1.496-1.656,2.438
			c-0.293,0.941-0.439,1.935-0.439,2.973c0,0.912,0.131,1.787,0.393,2.633c0.26,0.844,0.795,1.608,1.607,2.291
			c0.812,0.682,1.949,1.234,3.412,1.656c1.465,0.427,3.361,0.634,5.703,0.634c2.469,0,4.516-0.111,6.143-0.341
			c1.623-0.228,2.73-0.403,3.314-0.536V58.88z"/>
	</g>
	<path fill="#72D0EB" d="M23.824,81.33c-3.531-1.895-6.393-6.979-6.393-11.354v-0.133V17.39l-5.955-3.429
		C5.137,10.3,0,14.186,0,22.635v52.382v0.11c0,3.663,2.227,7.917,4.973,9.504l32.076,18.474c6.34,3.66,11.477-0.225,11.477-8.674
		c0,0.04-0.004,0.076-0.006,0.116L23.824,81.33z"/>
	<path fill="#D4DCE6" d="M43.553,32.434c2.746,1.585,5.006,5.842,5.006,9.504l0.002-31.323c0-0.068,0.006-0.131,0.008-0.2
		L32.184,1.646c-8.148-4.372-14.752,0.268-14.752,10.363v5.382L43.553,32.434z"/>
	<path fill="#D4DCE6" d="M53.531,72.609c-2.748-1.586-4.975-5.842-4.975-9.503l-0.031,31.324c0,0.04-0.004,0.076-0.006,0.116
		l16.543,8.854c8.148,4.371,14.752-0.27,14.752-10.364v-5.289L53.531,72.609z"/>
	<path fill="#FF5959" d="M92.113,20.414L60.033,1.94c-6.283-3.63-11.387,0.164-11.471,8.47l0.006,0.004L73.42,23.715
		c3.529,1.895,6.393,6.979,6.393,11.353v0.134l0.002,52.546l5.795,3.337c6.338,3.66,11.475-0.225,11.475-8.676l0.004-52.381v-0.11
		C97.088,26.255,94.857,22,92.113,20.414z"/>
	<path fill="#2E5597" d="M79.812,35.201v-0.134c0-4.374-2.863-9.458-6.393-11.353L48.568,10.414c-0.002,0.068-0.008,0.132-0.008,0.2
		l-0.002,31.323l0,0c0-3.662-2.26-7.919-5.006-9.504L17.432,17.39v52.454v0.133c0,4.374,2.861,9.459,6.393,11.354L48.52,94.547
		c0.002-0.04,0.006-0.076,0.006-0.116l0.031-31.324c0,3.661,2.227,7.917,4.975,9.503l26.283,15.138L79.812,35.201z"/>
</g>
</svg>
