<?xml version="1.0" encoding="UTF-8"?>
<svg xmlns="http://www.w3.org/2000/svg" width="702" height="195" viewBox="0 0 702 195">
  <g fill="none" fill-rule="nonzero">
    <path fill="#00C7C0" d="M39.538 19.076C82.404-13.03 142.6-3.578 175.398 39.685c6.316 8.33 4.942 20.757-3.918 26.324s-20.25 3.9-26.432-4.255c-15.79-20.827-42.659-29.349-67.132-21.159-24.457 8.185-40.633 31.22-40.096 57.117.539 25.924 16.567 48.836 41.404 56.78 24.812 7.937 51.092-.583 66.028-21.57 6.662-9.36 16.495-11.128 25.849-5.726 9.353 5.401 10.17 19.074 4.386 27.541C157.583 179.896 129.75 194.848 98.62 195c-31.111.15-60.275-14.121-79.18-39.07C-13.358 112.669-3.328 51.184 39.538 19.077zM166.415 78.7c6.122-2.964 13.39-2.395 19.067 1.481 5.668 3.87 8.902 10.453 8.481 17.284-.421 6.853-4.459 12.91-10.59 15.88-6.122 2.964-13.39 2.395-19.067-1.48-5.668-3.87-8.902-10.454-8.482-17.284.422-6.853 4.46-12.911 10.591-15.88z"/>
    <path fill="#343B51" d="M403.578 150.137h-20.647l-30.081-41.34-.275 13.243v28.097h-16.284V22h16.284v78.922l27.524-38.477h20.886v.716l-29.807 41.08 32.4 45.18v.716zm42.642 1.431c-7.08 0-12.95-2.207-17.612-6.621-4.66-4.415-7.05-10.559-7.168-18.433V77.478h-15.222V62.445h15.222v-23.81h16.284v23.81h21.24v15.033h-21.24v43.667c0 5.846 1.121 9.813 3.363 11.9 2.242 2.089 4.779 3.133 7.611 3.133 1.298 0 2.566-.15 3.805-.448a19.588 19.588 0 003.452-1.163l5.133 14.675c-4.248 1.55-9.204 2.326-14.868 2.326zm148.19 0c-7.08 0-12.95-2.207-17.611-6.621-4.662-4.415-7.051-10.559-7.169-18.433V77.478h-15.222V62.445h15.222v-23.81h16.284v23.81h21.24v15.033h-21.24v43.667c0 5.846 1.121 9.813 3.363 11.9 2.242 2.089 4.779 3.133 7.611 3.133 1.298 0 2.566-.15 3.805-.448a19.588 19.588 0 003.452-1.163l5.133 14.675c-4.248 1.55-9.204 2.326-14.868 2.326zm61.59.862c-25.405 0-46-20.823-46-46.51 0-25.687 20.595-46.51 46-46.51s46 20.823 46 46.51c0 25.687-20.595 46.51-46 46.51zm0-16.515c16.384 0 29.667-13.429 29.667-29.995 0-16.566-13.283-29.996-29.667-29.996s-29.667 13.43-29.667 29.996 13.283 29.995 29.667 29.995zM282 152.43c-25.405 0-46-20.823-46-46.51 0-25.687 20.595-46.51 46-46.51s46 20.823 46 46.51c0 25.687-20.595 46.51-46 46.51zm0-16.515c16.384 0 29.667-13.429 29.667-29.995 0-16.566-13.283-29.996-29.667-29.996s-29.667 13.43-29.667 29.996 13.283 29.995 29.667 29.995zM508.593 153c-13.2 0-24.078-4.396-32.633-13.187-8.556-8.79-12.916-20.74-12.916-34.164 0-13.306 4.156-24.384 12.467-33.234 8.31-8.85 18.944-13.276 31.9-13.276 13.322 0 22.762 4.402 31.808 12.563 9.046 8.161 14.893 23.4 13.825 38.998h-72.767c.245 8.554 3.178 13.422 8.8 18.65 5.623 5.227 12.345 7.84 20.167 7.84 10.756 0 19.753-5.499 24.264-15.681h17.733c-2.394 10.405-11.165 20.873-18.356 25.254-7.191 4.381-15.248 6.237-24.292 6.237zm-27.549-57.462h54.976c-1.323-5.918-4.604-11.348-9.84-15.475-5.236-4.127-9.815-6.2-17.587-6.2-6.415 0-12.763 2.362-17.389 6.2-4.626 3.84-8.68 8.997-10.16 15.475z"/>
  </g>
</svg>