<?xml version="1.0" encoding="UTF-8"?>
<!DOCTYPE svg PUBLIC "-//W3C//DTD SVG 1.1//EN" "http://www.w3.org/Graphics/SVG/1.1/DTD/svg11.dtd">
<!-- Creator: CorelDRAW 2020 (64-Bit) -->
<svg xmlns="http://www.w3.org/2000/svg" xml:space="preserve" width="120px" height="68px" version="1.1" style="shape-rendering:geometricPrecision; text-rendering:geometricPrecision; image-rendering:optimizeQuality; fill-rule:evenodd; clip-rule:evenodd"
viewBox="0 0 120 68.4"
 xmlns:xlink="http://www.w3.org/1999/xlink"
 xmlns:xodm="http://www.corel.com/coreldraw/odm/2003">
 <defs>
  <style type="text/css">
   <![CDATA[
    .fil0 {fill:#FD4326;fill-rule:nonzero}
   ]]>
  </style>
 </defs>
 <g id="Layer_x0020_1">
  <metadata id="CorelCorpID_0Corel-Layer"/>
  <g id="_2187678092416">
   <path class="fil0" d="M28.45 62.87l0 -9.67 -1.53 0 0 3.64c-0.55,-0.76 -1.36,-1.15 -2.24,-1.15 -1.8,0 -3.1,1.41 -3.1,3.67 0,2.32 1.31,3.68 3.1,3.68 0.91,0 1.71,-0.43 2.24,-1.13l0 0.96 1.53 0zm-3.32 -1.18c-1.22,0 -1.99,-0.97 -1.99,-2.33 0,-1.35 0.77,-2.32 1.99,-2.32 0.71,0 1.46,0.42 1.79,0.94l0 2.77c-0.33,0.52 -1.08,0.94 -1.79,0.94zm8.46 1.35c2.23,0 3.6,-1.68 3.6,-3.68 0,-2.02 -1.37,-3.67 -3.6,-3.67 -2.23,0 -3.59,1.65 -3.59,3.67 0,2 1.36,3.68 3.59,3.68zm0 -1.35c-1.29,0 -2.01,-1.08 -2.01,-2.33 0,-1.23 0.72,-2.32 2.01,-2.32 1.31,0 2.02,1.09 2.02,2.32 0,1.25 -0.71,2.33 -2.02,2.33zm8.39 1.35c1.1,0 2.13,-0.36 2.84,-1.03l-0.69 -1c-0.51,0.51 -1.31,0.78 -2,0.78 -1.32,0 -2.1,-0.88 -2.22,-1.92l5.39 0 0 -0.38c0,-2.2 -1.33,-3.8 -3.43,-3.8 -2.08,0 -3.55,1.64 -3.55,3.67 0,2.22 1.55,3.68 3.66,3.68zm1.86 -4.26l-3.95 0c0.06,-0.84 0.67,-1.84 1.96,-1.84 1.38,0 1.94,1.01 1.99,1.84zm5.37 4.26c1.89,0 2.92,-0.94 2.92,-2.19 0,-2.78 -4.24,-1.85 -4.24,-3.08 0,-0.5 0.5,-0.87 1.3,-0.87 0.88,0 1.65,0.37 2.07,0.84l0.64 -1.08c-0.63,-0.55 -1.53,-0.97 -2.71,-0.97 -1.77,0 -2.76,0.97 -2.76,2.12 0,2.69 4.23,1.71 4.23,3.09 0,0.55 -0.48,0.92 -1.39,0.92 -0.9,0 -1.87,-0.46 -2.36,-0.97l-0.7 1.09c0.73,0.71 1.8,1.1 3,1.1zm18.29 -0.17l0 -5.06c0,-1.42 -0.74,-2.12 -2.01,-2.12 -1.06,0 -1.99,0.66 -2.38,1.28 -0.23,-0.76 -0.87,-1.28 -1.91,-1.28 -1.07,0 -1.99,0.7 -2.29,1.12l0 -0.94 -1.52 0 0 7 1.52 0 0 -4.9c0.32,-0.45 0.94,-0.93 1.62,-0.93 0.83,0 1.15,0.51 1.15,1.26l0 4.57 1.52 0 0 -4.9c0.3,-0.47 0.94,-0.93 1.62,-0.93 0.83,0 1.16,0.51 1.16,1.26l0 4.57 1.52 0zm8.42 0l0 -7 -1.52 0 0 0.97c-0.56,-0.76 -1.36,-1.15 -2.24,-1.15 -1.8,0 -3.11,1.41 -3.11,3.67 0,2.32 1.32,3.68 3.11,3.68 0.91,0 1.71,-0.43 2.24,-1.13l0 0.96 1.52 0zm-3.32 -1.18c-1.21,0 -1.98,-0.97 -1.98,-2.33 0,-1.35 0.77,-2.32 1.98,-2.32 0.72,0 1.47,0.42 1.8,0.94l0 2.77c-0.33,0.52 -1.08,0.94 -1.8,0.94zm7.41 1.35c0.7,0 1.15,-0.2 1.42,-0.45l-0.36 -1.16c-0.12,0.13 -0.38,0.26 -0.67,0.26 -0.43,0 -0.66,-0.36 -0.66,-0.84l0 -3.66 1.42 0 0 -1.32 -1.42 0 0 -1.92 -1.53 0 0 1.92 -1.16 0 0 1.32 1.16 0 0 4.04c0,1.17 0.61,1.81 1.8,1.81zm4.62 0c0.7,0 1.15,-0.2 1.42,-0.45l-0.36 -1.16c-0.11,0.13 -0.37,0.26 -0.66,0.26 -0.44,0 -0.67,-0.36 -0.67,-0.84l0 -3.66 1.42 0 0 -1.32 -1.42 0 0 -1.92 -1.52 0 0 1.92 -1.16 0 0 1.32 1.16 0 0 4.04c0,1.17 0.61,1.81 1.79,1.81zm5.76 0c1.1,0 2.13,-0.36 2.84,-1.03l-0.7 -1c-0.5,0.51 -1.3,0.78 -2,0.78 -1.32,0 -2.1,-0.88 -2.21,-1.92l5.39 0 0 -0.38c0,-2.2 -1.34,-3.8 -3.44,-3.8 -2.07,0 -3.55,1.64 -3.55,3.67 0,2.22 1.55,3.68 3.67,3.68zm1.85 -4.26l-3.94 0c0.06,-0.84 0.67,-1.84 1.96,-1.84 1.37,0 1.94,1.01 1.98,1.84zm4.5 4.09l0 -4.77c0.3,-0.51 1.16,-0.94 1.81,-0.94 0.19,0 0.33,0.01 0.46,0.04l0 -1.51c-0.9,0 -1.74,0.52 -2.27,1.19l0 -1.01 -1.53 0 0 7 1.53 0z"/>
   <path class="fil0" d="M25.26 50.78c8.3,0 14.21,-6.31 14.21,-16.87 0,-10.55 -5.91,-16.8 -14.21,-16.8 -4.18,0 -7.9,2 -10.29,5.18l0 -4.38 -6.97 0 0 44.29 6.97 0 0 -16.67c2.66,3.39 6.24,5.25 10.29,5.25zm-2.06 -6.18c-3.25,0 -6.7,-1.99 -8.23,-4.38l0 -12.68c1.59,-2.39 4.98,-4.25 8.23,-4.25 5.52,0 9.1,4.38 9.1,10.62 0,6.24 -3.58,10.69 -9.1,10.69zm26.76 -30.61c2.39,0 4.32,-1.92 4.32,-4.31 0,-2.39 -1.93,-4.32 -4.32,-4.32 -2.39,0 -4.31,1.93 -4.31,4.32 0,2.39 1.92,4.31 4.31,4.31zm3.46 35.99l0 -32.07 -6.97 0 0 32.07 6.97 0zm18.72 0.8c3.19,0 5.25,-0.93 6.51,-2.06l-1.66 -5.31c-0.53,0.6 -1.73,1.19 -3.05,1.19 -2,0 -3.06,-1.66 -3.06,-3.85l0 -16.8 6.51 0 0 -6.04 -6.51 0 0 -8.76 -6.97 0 0 8.76 -5.31 0 0 6.04 5.31 0 0 18.53c0,5.38 2.79,8.3 8.23,8.3zm22.51 0c8.64,0 13.35,-4.32 13.35,-10.03 0,-12.75 -19.39,-8.5 -19.39,-14.14 0,-2.26 2.26,-3.98 5.91,-3.98 4.05,0 7.57,1.72 9.5,3.85l2.92 -4.92c-2.86,-2.52 -6.97,-4.45 -12.42,-4.45 -8.1,0 -12.62,4.45 -12.62,9.7 0,12.35 19.39,7.83 19.39,14.14 0,2.52 -2.19,4.25 -6.37,4.25 -4.12,0 -8.57,-2.12 -10.83,-4.45l-3.18 4.98c3.32,3.26 8.23,5.05 13.74,5.05z"/>
  </g>
 </g>
</svg>
