<svg width="462" height="113" viewBox="0 0 462 113" fill="none" xmlns="http://www.w3.org/2000/svg">
<g clip-path="url(#clip0)">
<path fill-rule="evenodd" clip-rule="evenodd" d="M423.348 22.8529H456.146C459.373 22.8529 461.99 25.5581 461.99 28.8946V83.2706C461.99 86.6056 459.373 89.3123 456.146 89.3123H423.348C420.12 89.3123 417.504 86.6056 417.504 83.2706V28.8946C417.504 25.5581 420.12 22.8529 423.348 22.8529Z" fill="#F44247"/>
<path fill-rule="evenodd" clip-rule="evenodd" d="M439.606 68.8955H432.766V43.9732H438.693C448.7 43.9732 448.517 68.8955 439.606 68.8955ZM438.473 37.0569H425.262V76.0128H438.473C459.535 76.0128 458.683 37.0569 438.473 37.0569Z" fill="#FEFEFE"/>
<path fill-rule="evenodd" clip-rule="evenodd" d="M377.015 20.9715H409.76C412.988 20.9715 415.604 23.6767 415.604 27.0132V86.0111C415.604 89.3477 412.988 92.0529 409.76 92.0529H377.015C373.787 92.0529 371.17 89.3477 371.17 86.0111V27.0132C371.17 23.6767 373.787 20.9715 377.015 20.9715Z" fill="#F44247"/>
<path fill-rule="evenodd" clip-rule="evenodd" d="M381.673 37.0568V76.0141H402.859V69.4059H388.491V59.5246H402.859V53.1687H388.369L388.248 43.7284H402.859V37.0568H381.673Z" fill="#FEFEFE"/>
<path fill-rule="evenodd" clip-rule="evenodd" d="M330.725 15.9556H363.331C366.559 15.9556 369.175 18.6608 369.175 21.9974V88.2061C369.175 91.5427 366.559 94.2479 363.331 94.2479H330.725C327.497 94.2479 324.88 91.5427 324.88 88.2061V21.9974C324.88 18.6608 327.497 15.9556 330.725 15.9556Z" fill="#F44247"/>
<path fill-rule="evenodd" clip-rule="evenodd" d="M341.27 75.809H348.666L348.695 43.5384H356.839V36.1055H332.708V43.5021L341.314 43.5384L341.27 75.809Z" fill="#FEFEFE"/>
<path fill-rule="evenodd" clip-rule="evenodd" d="M284.21 11.5894H317.125C320.352 11.5894 322.969 14.2946 322.969 17.6311V97.6166C322.969 100.953 320.352 103.658 317.125 103.658H284.21C280.982 103.658 278.366 100.953 278.366 97.6166V17.6311C278.366 14.2946 280.982 11.5894 284.21 11.5894Z" fill="#F44247"/>
<path fill-rule="evenodd" clip-rule="evenodd" d="M295.253 61.8928L299.469 45.9713L303.684 61.8928H295.253ZM303.748 36.1066H294.922L283.476 75.8086H291.269L293.399 69.2004H305.574L307.28 75.8086H315.133L303.748 36.1066Z" fill="#FEFEFE"/>
<path fill-rule="evenodd" clip-rule="evenodd" d="M238.198 0H270.42C273.648 0 276.264 2.7052 276.264 6.04177V107.028C276.264 110.365 273.648 113.07 270.42 113.07H238.198C234.97 113.07 232.354 110.365 232.354 107.028V6.04177C232.354 2.7052 234.97 0 238.198 0Z" fill="#F44247"/>
<path fill-rule="evenodd" clip-rule="evenodd" d="M262.962 48.7627L268.745 45.553C264.361 34.5388 254.353 34.1325 247.073 39.1336C238.914 44.7343 235.019 68.0208 250.664 75.6984C260.891 79.6633 267.587 72.0491 268.745 66.6992C265.995 65.3775 262.352 63.9305 262.352 63.9305C258.396 75.2588 244.818 66.6992 248.202 52.5222C251.821 37.3709 262.474 45.4276 262.962 48.7627Z" fill="#FEFEFE"/>
<path fill-rule="evenodd" clip-rule="evenodd" d="M224.347 113.07H191.55C188.323 113.07 185.706 110.365 185.706 107.028V6.04165C185.706 2.70508 188.323 -0.00012207 191.55 -0.00012207H224.347C227.574 -0.00012207 230.191 2.70508 230.191 6.04165V107.028C230.191 110.365 227.574 113.07 224.347 113.07Z" fill="#F44247"/>
<path fill-rule="evenodd" clip-rule="evenodd" d="M203.24 75.6989H210.119V36.6796H203.24V75.6989Z" fill="#FEFEFE"/>
<path fill-rule="evenodd" clip-rule="evenodd" d="M178.052 103.658H145.126C141.898 103.658 139.281 100.953 139.281 97.616V17.3888C139.281 14.0508 141.898 11.3471 145.126 11.3471H178.052C181.28 11.3471 183.896 14.0508 183.896 17.3888V97.616C183.896 100.953 181.28 103.658 178.052 103.658Z" fill="#F44247"/>
<path fill-rule="evenodd" clip-rule="evenodd" d="M152.833 36.6791V75.6984H172.496V69.5313H159.688V36.6791H152.833Z" fill="#FEFEFE"/>
<path fill-rule="evenodd" clip-rule="evenodd" d="M131.798 94.4713H98.6598C95.4323 94.4713 92.8156 91.766 92.8156 88.4295V22.2207C92.8156 18.8842 95.4323 16.179 98.6598 16.179H131.798C135.026 16.179 137.643 18.8842 137.643 22.2207V88.4295C137.643 91.766 135.026 94.4713 131.798 94.4713Z" fill="#F44247"/>
<path fill-rule="evenodd" clip-rule="evenodd" d="M117.281 54.8672H110.95V43.6023H117.281C123.612 43.6023 123.612 54.8672 117.281 54.8672ZM120.324 36.6784H103.949V75.6992H111.072V62.3242C134.454 64.7575 134.449 38.8187 120.324 36.6784Z" fill="#FEFEFE"/>
<path fill-rule="evenodd" clip-rule="evenodd" d="M85.0163 92.0994H52.7209C49.4948 92.0994 46.8766 89.3942 46.8766 86.0577V27.0598C46.8766 23.7232 49.4948 21.018 52.7209 21.018H85.0163C88.2437 21.018 90.8605 23.7232 90.8605 27.0598V86.0577C90.8605 89.3942 88.2437 92.0994 85.0163 92.0994Z" fill="#F44247"/>
<path fill-rule="evenodd" clip-rule="evenodd" d="M57.0728 37.0568V76.0141H78.2582V69.4059H63.8915V59.5246H78.2582V53.1687H63.7688L63.6476 43.7284H78.2582V37.0568H57.0728Z" fill="#FEFEFE"/>
<path fill-rule="evenodd" clip-rule="evenodd" d="M39.1746 90.2172H5.84475C2.61726 90.2172 0.000488281 87.512 0.000488281 84.1755V29.801C0.000488281 26.4645 2.61726 23.7593 5.84475 23.7593H39.1746C42.4021 23.7593 45.0188 26.4645 45.0188 29.801V84.1755C45.0188 87.512 42.4021 90.2172 39.1746 90.2172Z" fill="#F44247"/>
<path fill-rule="evenodd" clip-rule="evenodd" d="M23.6343 55.5272H17.3926V44.4239H23.6343C29.5443 44.4239 29.876 55.5272 23.6343 55.5272ZM28.9935 61.2926C38.2859 58.6433 38.4948 37.4125 25.1173 37.4125H9.6665V76.5647H17.4481V62.442H21.5362L27.284 76.5647H36.2345L28.9935 61.2926Z" fill="#FEFEFE"/>
</g>
<defs>
<clipPath id="clip0">
<rect width="462" height="113" fill="white"/>
</clipPath>
</defs>
</svg>
