<svg xmlns="http://www.w3.org/2000/svg" viewBox="0 0 1600 439.32"><defs><style>.cls-1{fill:#000d47;}</style></defs><title>Asset 1</title><g id="Layer_2" data-name="Layer 2"><g id="Layer_1-2" data-name="Layer 1"><path class="cls-1" d="M1008.3,93.9c-51,1.5-91,44.7-91,95.8V306.3a5,5,0,0,0,5,5h28.3a5,5,0,0,0,5-5v-117c0-30,22.9-55.7,52.8-57.1a55.59,55.59,0,0,1,58.3,52.8c0,.9.1,1.8.1,2.8V306.4a5,5,0,0,0,5,5h28.3a5,5,0,0,0,5-5V187.7A94.08,94.08,0,0,0,1011,93.8,22.62,22.62,0,0,0,1008.3,93.9Zm238.5,1A108.56,108.56,0,1,0,1312.4,286v20.2a5,5,0,0,0,5,5h28.3a5,5,0,0,0,5-5V205.6C1350.6,147.1,1305.2,97.4,1246.8,94.9Zm-4.7,178.8a70.35,70.35,0,1,1,70.3-70.4h0A70.48,70.48,0,0,1,1242.1,273.7Zm254-178.8A108.56,108.56,0,1,0,1561.7,286v42.9c0,39.4-32.3,72.9-71.7,72.2a70.21,70.21,0,0,1-56-29.6,4.9,4.9,0,0,0-6.6-1.3l-24,14.9a5,5,0,0,0-1.6,6.9c0,.1.1.1.1.2a107.76,107.76,0,0,0,87.4,47.1c60.9,1.2,110.7-49.9,110.7-110.7V205.7C1599.9,147.1,1554.5,97.4,1496.1,94.9Zm-4.7,178.8a70.3,70.3,0,1,1,70.3-70.3h0A70.4,70.4,0,0,1,1491.4,273.7ZM584.9,94.9A108.56,108.56,0,1,0,650.5,286v42.9c0,39.4-32.3,73-71.7,72.2a70.21,70.21,0,0,1-56-29.6,4.9,4.9,0,0,0-6.6-1.3l-24,14.9a5,5,0,0,0-1.6,6.9c0,.1.1.1.1.2a107.8,107.8,0,0,0,87.2,47.1c60.9,1.2,110.7-49.9,110.7-110.7V205.7C688.7,147.1,643.4,97.4,584.9,94.9Zm-4.7,178.8a70.3,70.3,0,1,1,70.3-70.3h0A70.4,70.4,0,0,1,580.2,273.7ZM431.2,96.3l-28.3.4a4.91,4.91,0,0,0-4.9,4.9V214.4A55.69,55.69,0,0,1,342.3,270a24.37,24.37,0,0,1-2.7-.1c-29.9-1.5-52.8-27.2-52.8-57.1v-111a5,5,0,0,0-5-5H253.5a5,5,0,0,0-5,5V212.5c0,51,40,94.3,91,95.8A94,94,0,0,0,436.1,217V101.3a4.81,4.81,0,0,0-4.9-5Zm379.1,88.8c-27.7-7.7-44.5-13.4-44.5-28.4,0-21.7,23.7-29.6,39.7-29.6,18.2,0,29.2,4.2,43.5,13a5,5,0,0,0,6.8-1.6l13.1-20.4a5,5,0,0,0-1.5-6.9c-.1,0-.1-.1-.2-.1a121.71,121.71,0,0,0-63.1-17.5c-36,0-73.1,23.7-73.1,63.4,0,40.5,36,50.2,67.7,58.8,30,8.1,48.2,14.4,48.2,33.3,0,17.4-17.8,30.5-41.5,30.5-22.8,0-41.4-10.3-54-20a4.93,4.93,0,0,0-6.9.8l-15.6,19a5,5,0,0,0,.7,7C750.1,303.6,777.4,313,807,313c43.1,0,74.4-27.4,74.4-65.1C881.6,205,842,194,810.3,185.1Zm-689-89.6a108.31,108.31,0,0,0-83,25.2V5a5,5,0,0,0-5-5,5.94,5.94,0,0,0-2.6.7L2.4,17.9A5,5,0,0,0,0,22.2V201.1c0,58.5,45.4,108.2,103.8,110.7A108.58,108.58,0,0,0,121.3,95.5ZM108.6,273.7a70.3,70.3,0,1,1,70.3-70.3A70.33,70.33,0,0,1,108.6,273.7Z"/></g></g></svg>