<?xml version="1.0" encoding="UTF-8"?>
<svg width="72px" height="72px" viewBox="0 0 72 72" version="1.1" xmlns="http://www.w3.org/2000/svg" xmlns:xlink="http://www.w3.org/1999/xlink">
    <!-- Generator: Sketch 53.2 (72643) - https://sketchapp.com -->
    <title>icon</title>
    <desc>Created with Sketch.</desc>
    <defs>
        <polygon id="path-1" points="0 0.259352113 72 0.259352113 72 53.4986366 0 53.4986366"></polygon>
        <polygon id="path-3" points="0.737434884 0.550695918 32.2624116 0.550695918 32.2624116 37 0.737434884 37"></polygon>
    </defs>
    <g id="Designs" stroke="none" stroke-width="1" fill="none" fill-rule="evenodd">
        <g id="Home-Page-Velloro-Rd2" transform="translate(-1006.000000, -554.000000)">
            <g id="Callout-3" transform="translate(890.000000, 512.000000)">
                <g id="icon" transform="translate(116.000000, 42.000000)">
                    <path d="M7,6 C7,6.552 6.552,7 6,7 C5.448,7 5,6.552 5,6 C5,5.448 5.448,5 6,5 C6.552,5 7,5.448 7,6" id="Fill-1" fill="#00C1D5"></path>
                    <path d="M11,6 C11,6.552 10.552,7 10,7 C9.448,7 9,6.552 9,6 C9,5.448 9.448,5 10,5 C10.552,5 11,5.448 11,6" id="Fill-3" fill="#00C1D5"></path>
                    <path d="M15,6 C15,6.552 14.552,7 14,7 C13.448,7 13,6.552 13,6 C13,5.448 13.448,5 14,5 C14.552,5 15,5.448 15,6" id="Fill-5" fill="#00C1D5"></path>
                    <g id="Group-9">
                        <mask id="mask-2" fill="white">
                            <use xlink:href="#path-1"></use>
                        </mask>
                        <g id="Clip-8"></g>
                        <path d="M0,0.2592 L0,53.4986366 L16.9935158,53.4986366 C16.9715368,52.8513972 16.9571368,52.2170873 16.9472842,51.5972282 L1.89473684,51.5972282 L1.89473684,13.093707 L65.7731368,13.093707 L65.7731368,11.1922986 L1.89473684,11.1922986 L1.89473684,2.16060845 L70.1052632,2.16060845 L70.1052632,51.5972282 L55.2421895,51.5972282 C55.2323368,52.2170873 55.2179368,52.8513972 55.1967158,53.4986366 L72,53.4986366 L72,0.2592 L0,0.2592 Z" id="Fill-7" fill="#0091DA" mask="url(#mask-2)"></path>
                    </g>
                    <g id="Group-12" transform="translate(20.000000, 35.000000)">
                        <mask id="mask-4" fill="white">
                            <use xlink:href="#path-3"></use>
                        </mask>
                        <g id="Clip-11"></g>
                        <path d="M2.65603953,8.73751224 L2.65603953,16.6804306 C2.65603953,29.6961245 15.9097605,34.7794714 16.4738302,34.9893898 L16.4999233,34.998451 L16.6979233,34.9304918 C17.9181558,34.4585531 30.343807,29.271002 30.343807,16.6804306 L30.343807,8.73751224 L30.2632256,8.71712449 C27.8235279,8.07679796 25.4191326,7.23787959 23.1175744,6.22226735 C20.8659,5.26102245 18.6595047,4.11477755 16.5705279,2.81977755 L16.5122023,2.78428776 L16.450807,2.82355306 C14.3533884,4.12383878 12.146993,5.27008367 9.88150465,6.23661429 C7.58455116,7.24618571 5.1763186,8.08208367 2.73585349,8.71787959 L2.65603953,8.73751224 Z M16.4999233,37.0002265 L15.8215047,36.7653898 C15.1799233,36.5260224 0.737434884,30.9850837 0.737434884,16.6804306 L0.737434884,7.26959388 L2.2539,6.89053265 C4.58692326,6.28343061 6.89538837,5.48151224 9.1086907,4.50894082 C11.2943651,3.5763898 13.4140395,2.47545102 15.4178302,1.23330816 L16.4876442,0.550695918 L17.5858535,1.21820612 C19.5996209,2.4663898 21.7185279,3.56732857 23.8919233,4.49534898 C26.1090628,5.47320612 28.4136907,6.2781449 30.752086,6.89204286 L32.2624116,7.26959388 L32.2624116,16.6804306 C32.2624116,30.0797163 19.526714,36.0895735 17.1752721,36.7555735 L17.1783419,36.7653898 L16.4999233,37.0002265 Z" id="Fill-10" fill="#0091DA" mask="url(#mask-4)"></path>
                    </g>
                </g>
            </g>
        </g>
    </g>
</svg>